<?xml version="1.0" encoding="UTF-8"?>
<svg id="Layer_1" data-name="Layer 1" xmlns="http://www.w3.org/2000/svg" viewBox="0 0 749 753">
  <defs>
    <style>
      .cls-1 {
        fill: #2985e2;
      }

      .cls-2 {
        fill: #333;
      }

      .cls-3 {
        fill: #212121;
      }
    </style>
  </defs>
  <g>
    <path class="cls-1" d="m525.34,76.73c-2.49,1.77-3.47,4.76-2.18,8.45,3.41,9.73,8.66,15.09,15.87,11.39,6.98-3.58,12.37,1.63,18.45,2.59,4.4.7,8.33,5.06,9.17,11.15,1.64,11.89,7.99,15.41,13.72,17.98,5.97,2.68,12.17,6.54,18.69,5.32,5.06-.95,8.9,1.8,12.25,7.16,1.25,2,2.74,3.66,4.15,5.44,6.71,8.51,6.94,8.68,2.92,20.38-1.57,4.55-2.39,8.84-2.19,13.82.34,8.73-1.81,16.25-4.93,23.35-1.52,3.45-2.9,7.07-4.15,10.78-1.45,4.32-2.49,8.98-4.07,13.19-1.45,3.87,2.15,7.99-.66,11.69-3.29-2.02-6.61-4.19-10-6.01-.63-.34-1.91.44-2.31,1.32-.38.83-.32,2.81.09,3.68,1.6,3.32,3.51,6.3,5.08,9.65.37.79.13,2.84-.32,3.72-.45.87-1.82,1.76-2.28,1.34-4.95-4.4-7.41-.12-9.64,5.79-.38,1.01-1.57,1.32-2.38,1.95-1.9-1.36-3.79-2.72-5.69-4.08-.87-6.38-2.69-11.87-6.58-15.16-.59-.5-1.92-.28-2.36.41-.48.75-.64,2.63-.38,3.69,1.62,6.56,5.29,9.23,9.44,10.86,1.9,1.35,3.8,2.71,5.69,4.07,1.14,5.4,2.32,10.27-2.09,14.43-4.5,4.25-4.61,5.44-1.25,10.13,3.17,4.42,2.9,7.44.51,12.3-3.11,6.33-7.81,12.4-4.54,21.94,6.39.84,9.51-6.99,13.57-12.06,3.58-4.47,6.66-10.04,7.03-17.41.46-9.15,3.29-15.56,8.24-20.51,4.76-4.77,7.98-11.32,9.2-20.06.75-5.34,3.39-8.12,6.85-8.99,3.18-.8,6.37-1.46,9.56-2.06,2.91-.55,5.38,1.07,7.64,3.77,5.04,6.03,4.92,11.49-.47,18.16-.71.87-1.71,1.28-2.28,2.29-.51.92-.99,2.57-.77,3.53.23.98,1.34,2.18,2.02,2.13,8.4-.62,16.19-2.95,22.35-13.2,3.96-6.57,5.61-6.06,10.86-1.56,7.85,6.73,9.25,6.68,15.17-2.71,3.48-5.52,6.26-12.05,9.77-17.5,4.31-6.69,10.14-4.38,11.77,4.44.99,5.34,1.31,10.96,2.23,16.33.84,4.92,2.91,8.51,6.04,10.76,5,3.58,8.48,2.59,10.94-5.8,2.6-8.86,6.94-10.42,12.28-9.72,2.94.38,5.1,2.77,5.7,7.65.59,4.76,1.32,9.48,2.04,14.2,1.1,7.24-1.35,12.11-5.53,9.19-7.77-5.41-14.37-.09-21.15,3.17-5.36,2.58-7.22,13.58-4.12,21.03,1.93,4.63,5.03,5.21,8.36,5.86,9.41,1.82,11.98,7.86,9.17,20.68-.43,1.97-1.18,3.77-1.75,5.67-2.24,7.37,1.62,15.56-.92,22.5-2.37,6.49-7.77,9.22-9.46,17.36-1.22,5.89-2.06,5.57-6.15,1.56-.76-.75-1.32-2.08-2.12-2.62-.76-.51-1.94-.86-2.52-.3-.57.55-1.09,2.62-.84,3.54,4.7,17.38-.59,31.27-7.53,43.44-10.39,18.24-10.75,17.77-23.9,3.26-.73-.8-1.52-1.59-2.37-2-1.46-.71-2.8.07-3.43,2.1-.33,1.07-.32,3.29.15,3.87,3.53,4.42,7.35,8.32,10.79,12.87,3.54,4.69,4.04,8.37,1.85,14.86-4.18,12.4-7.57,25.31-11.33,37.97-2.59,8.71-7.04,16.21-10.97,23.89-.97,1.89-3.09,2.65-4.79,3.42-6.21,2.84-6.3,2.78-4.98,13.38.44,3.51.78,6.92-.3,10.17-.37,1.12-1.24,2.38-1.98,2.53-.68.14-1.83-.84-2.17-1.81-.85-2.44-1.1-5.37-2.03-7.71-3.89-9.77-11.29-11.03-16.02-2.43-5,9.07-9.67,18.56-14.33,28.04-2.57,5.22-5.63,8.94-9.83,10.77-6.5,2.83-11.01,8.91-14.32,18.18-3.5,9.82-5.02,9.89-12.1,4.73-1.66-1.21-3.26-3.6-4.72-.52-.61,1.29-.38,4.09.09,5.82,1.49,5.43,5.85,9.75,2.48,16.85-2.33,4.92-5.51,7.53-9.44,7.14-5.32-.52-6.39,9.92-11.13,10-1.73-1.4-1.93-3.44-1.97-5.52-.22-12.06-3.17-21.57-10.67-27.11-4.35-3.21-5.49-8.09-4.28-15.5,1.63-9.99.35-15.66-2.57-15.87-4.65-.33-5.97,5.39-7.64,10.31-.63,1.86-1.04,3.89-1.72,5.7-3.06,8.16-4.98,9.15-11.3,6.15-2.61-1.24-5.18-2.88-7.85-3.45-2.4-.52-4.98,1.11-5.01,5.27-.06,6.09-1.92,10.32-4.28,14.82-2.26,4.3-3.76,9.5-5.6,14.3-1.6,4.18-3.16,8.41-5.82,10.64-3.83-1.98-2.24-8.03-4.53-10.56-1.08-1.2-2.23-2.63-3.48-3-1.56-.46-2.68,1.45-2.81,3.66-.62,10.5-5.61,15.48-10.88,20.04-3.99,3.45-7.96,7.09-12.18,9.74-7.35,4.61-13.68,11.17-19.27,19.69-3.67,5.59-7.86,9.35-13.57,7.85-2.11-.55-4.58.52-6.68,1.72-3.93,2.26-7.18,1.22-10.06-3.23-2.27-3.5-4.61-6.94-7.83-8.25-1.7-.69-4.57-1.86-5.11-.77-2.26,4.54,1.56,4.91,2.79,7.06,2.31,4.05,2.22,6.6-.51,7.75-2.64,1.11-5.29,2.2-7.96,3.08-3.01.99-5.55-2.08-5.45-6.84.1-4.84.73-9.66.86-14.51.11-4.37-1.11-8.19-3.26-11.1-1.86-2.51-4.18-3.51-6.27-1.08-2.17,2.52-3.84,6-5.94,8.68-6.75,8.64-15.66,5.25-19.02-7.17-.52-1.92-.76-4.02-1.05-6.06-1.13-7.92-4.62-11.41-9.68-12.64-4.18-1.02-5.04-.67-6.24,7.63-.9,6.23-3.52,9.98-7,11.86-5.69,3.07-9.36,8.23-10.82,17.28-.9,5.56-3.71,9.52-6.24,13.59-12.62,20.28-25.89,39.55-40.09,57.29-3.87,4.83-7.38,5.43-11.27.72-5.71-6.92-11.62-13.73-14.6-24.52-.87-3.17-1.99-6.25-3.29-9.06-2.87-6.2-8.97-9.27-9.49-17.2-.43-6.54,1.68-13.44,2.55-20.21.17-1.29-.08-2.77-.32-4.09-.38-2.11-1.17-3.94-2.78-3.95-.84,0-2.03.41-2.45,1.29-1.57,3.35-3.03,6.87-4.28,10.52-1.9,5.53-3.49,11.32-5.45,16.8-.86,2.41-2.4,4.58-4.39,4.28-2.4-.35-2.47-3.43-2.51-6.31-.04-2.77.08-5.63-.31-8.3-.92-6.26-4.08-8.82-8.38-6.89-1.75.79-3.33,2.42-5.08,3.21-4.6,2.08-8.03-1.32-11.02-6.03-6.44-10.14-15.11-12.96-23.58-15.43-4.87-1.42-9.56.18-12.92,8.37-4.75,11.58-9.58,12.77-17.37,6.82-2.04-1.56-4-3.51-5.74-5.73-4.7-5.98-9.92-9.88-16.05-11.25-9.27-2.08-16.61-7.98-19.02-23.2-.3-1.9-1.37-3.59-2.23-5.2-1.67-3.11-5.49-3.01-7.44-.2-2.46,3.56-3.58,8.17-4.32,12.87-1.85,11.7-4.48,22.6-10.4,31.23-2.9,4.22-3.06,14.46-7.39,13.84-6.96-1-14.83.56-20.62-8.32-2.26-3.46-4.64-6.8-7.2-9.73-5.17-5.91-10.35-11.05-17.62-9.27-4.61,1.13-7.79-4.28-7.84-11.27-.02-3.36.68-6.78,1.21-10.11,1.07-6.75,2.61-13.38,3.33-20.21,2.39-22.95,8.96-43.29,15.58-63.98,7.17-22.41,12.81-46,18.53-69.41,7.48-30.61,14.22-61.6,24.21-90.7,7-20.37,13.29-41.3,19.94-61.93,4.84-15.01,10.69-29.15,16.28-43.53,10.24-26.36,20.39-52.89,27.04-81.99,2.42-10.58,5.44-20.68,9.2-30.33,1.85-4.76,3.45-9.86,4.67-15.08,6.19-26.4,15.36-50.56,24.35-74.85,4.9-13.24,8.5-27.72,15.75-38.81,1.28-1.96,2.14-4.54,3.39-6.55,2.51-4.04,5.52-4.52,8.66-1.38,3.05,3.05,5.84,6.8,9.04,9.37,3.62,2.91,7.53-.03,8.69-6.1,1.65-8.68,2.72-17.66,4.73-26.13,2-8.47,4.62-10.53,10.66-9.71,3.19.43,6.34,1.9,9.56.63,9.55-3.73,17.53,2.05,23.89,11.49,5.64,8.37,12.72,13.68,18.13,22.34,2.69,4.3,6,3.2,7.69-2.7,4.28-14.92,11.24-26.72,18.43-39.19,3.22,3.05,6.12,6.59,9.41,8.75,7.76,5.11,10.51,14.56,11.45,26.41.76,9.65,1.93,19.26,3.3,28.77.84,5.85,3.11,6.63,7.22,3.36,4.97-3.96,7.7-3.89,9.43.24,2.36,5.62,2.14,12.97-.92,17.29-1.64,2.31-3.84,3.7-5.78,5.52-2.35,2.21-3.07,5.25-1.36,8.69,2.49,4.98,5,10,7.88,14.43,2.86,4.4,7.46,3.33,9.41-2.1,2.6-7.25,5.74-14.36,2.93-23.5-1.42-4.62.24-7.27,3.5-9.15,8.63-5,17.1-9.62,26.09-2.03,9.02-.73,15.8,5.67,21.78,15.17,2.75,4.37,6.32,5.47,10.16,3.09.85-.53,1.71-1.54,2.56-1.5,10.32.47,17.81-4.34,18.55-22.2,3.83-8.65,7.56-17.4,11.54-25.88,1.4-2.98,3.76-3.83,6.2-3.18,6.31,1.69,11.18,6.13,13.33,15.88.87,3.95,1.74,7.93,2.87,11.72,1.48,4.91,3.25,5.03,7.16.76.72-.79,1.39-2.79,1.95-2.68,6.79,1.31,13.17-6.09,20.18-1.69,3.17,1.99,5.22-.82,5.36-6.24.05-2.06.1-4.21.49-6.16.7-3.48,3.45-4.74,5.69-3.13,3.46,2.49,5.94,6.55,7.95,11.27,1.49,3.5,2.64,7.33,3.95,11.01l.12-.22Zm-30.31,384.69l-.12.18c-.24-.55-.48-1.09-.72-1.63.28.48.56.97.84,1.45Zm-204.4,37.61c.74-.5,1.54-.85,2.19-1.54.94-.99.88-2.05-.06-2.46-.25-.11-.77.46-.95.92-.41,1.04-.69,2.2-1.03,3.32-.75.52-1.53.95-2.23,1.59-.31.28-.69,1.08-.62,1.46.28,1.46.99,1.54,1.66.09.46-1,.7-2.25,1.04-3.39Zm265.06-275.73c2.25-.65,4.64-1.09,5.91-4.45.37-.98.32-2.97-.1-3.89-1.73-3.75-5.35-4.54-8.66-2.23-2.3,1.61-3.64,4.44-3.55,8.16.12,4.87.57,9.89,4.15,12.01.53.31,2.04-.86,2.13-1.61.32-2.67.21-5.46.27-8.2l-.14.21Zm-140.86,447.05c3.98,2.28,7.46,3.05,11.12.56,3.01-2.05,4.04-6.72,1.86-9.93-3-4.42-6.38-7.99-10.47-9.56-5.82-2.23-11.51,2.8-12.79,11.05-.71,4.56,1.12,8.96,3.93,8.9,2.26-.05,4.51-.7,6.35-1.02Zm-156.49-127.7c-1.64-.73-3.34-1.68-4,.55-.88,2.93.54,5.44,1.98,7.14,7.75,9.15,10.2,8.52,16.44-3.97.82-1.64,1.65-3.37,2.13-5.26.28-1.13.2-3.17-.3-3.89-.9-1.31-2.2-2.55-3.4-2.72-2.53-.35-4.15,2.44-5.71,5.03-2.07,3.45-4.52,4.61-7.13,3.12Zm303.6-205.08c-.5-6.35-2.6-10.43-6.36-11.77-.7-.25-1.9.49-2.36,1.38-1.74,3.35.12,8.4,4.65,12.94.37.37.84.64,1.27.7,1.54.2,2.53-.8,2.8-3.25Zm-281.02,217.66c-1.96.34-3.65,1.52-3.56,4.86.09,3.26,1.87,4.49,3.78,4.77,1.89.28,3.62-.5,4.14-3.71.49-3.05-1.69-5.9-4.36-5.91Zm320.93-236.28c-.29-4.86-1.7-7.48-4.81-8.3-.71-.19-2.04.59-2.26,1.43-1.34,4.94,1.17,7.25,3.24,9.76.33.4.82.65,1.24.69,1.63.14,2.4-1.27,2.59-3.58Zm-32.5-159.44c2.13.18,3.93-3.75,3.9-8.86-.01-2.24-.95-3.96-2.46-3.63-2.39.51-3.96,2.9-4.19,6.57-.18,2.87.82,5.02,2.75,5.92Zm50.44,118.87c-.6-2.88-1.95-4.72-3.76-5.65-1.39-.72-2.81-.26-3.6,1.74-1.08,2.75-.76,5.43,1.09,7.09,1.64,1.47,3.56,1.66,5.24.23.58-.5.7-2.24,1.02-3.41Zm98.67,61.15c-3.04-.37-5.59,2.68-5.45,6.79.08,2.22,1.09,3.81,2.55,4.05,2.85.45,5.62-2.99,5.52-6.86-.06-2.28-1.21-3.45-2.62-3.97Zm-463.47,289.43c.64-3.23-.45-5.18-2.34-6.22-1.37-.75-2.9-.32-3.48,1.79-.86,3.15.41,5.24,2.28,6.29,1.36.76,2.65.22,3.54-1.86Zm60.75-31.1c.14-3.62-.92-4.85-2.28-5.16-1.93-.44-3.58.59-3.72,3.94-.09,2.18.99,3.74,2.38,4.08,2,.49,3.37-.83,3.62-2.85Zm366.87-274.91c-1.33-3.17-2.73-6.59-4.22-9.92-.19-.42-.9-.63-1.25-.44-.34.18-.78,1-.77,1.53.06,4.31.89,8.15,3.4,10.67.33.33.91.4,1.3.21.38-.18.66-.83,1.54-2.04Zm20.87-49.56c.06-3.45-.82-4.97-2.36-5.02-1.54-.04-2.51,1.59-2.8,3.78-.3,2.22.27,4.35,1.75,4.81,2.23.69,3.2-1.54,3.41-3.58Zm-425.67,332.87c-1.4.96-1.85,2.69-1.12,4.61.36.95,1.33,1.92,2.03,1.93,1.51.01,2.3-1.67,1.97-3.85-.31-2.09-1.42-3.01-2.88-2.69Zm-143.32,34.32c-.67.7-1.78,1.25-1.91,2.13-.44,2.93.26,5.45,2.39,6.03.56.15,1.74-1.15,1.91-2.09.53-3-.3-5.19-2.38-6.07ZM420.94,113.25c-.14-2.16-.89-3.71-2.33-3.67-.65.02-1.63,1.05-1.85,1.97-.5,2.01.18,3.8,1.52,4.37,1.37.59,2.36-.45,2.66-2.67Zm109.49,226.97c-.4-2.65-1.71-3.11-3.05-2.47-.65.31-1.56,1.89-1.49,2.69.24,2.46,1.64,3.07,3,2.37.66-.33,1.07-1.77,1.53-2.6Zm-75.77,252.59c-.55-2.15-1.65-2.94-2.95-1.96-.65.49-1.35,1.92-1.39,2.98-.09,2.29.97,3.61,2.44,3.21,1.39-.37,2.04-2.02,1.9-4.23Zm-86.48-42.86c.78-.57,1.84-.84,2.28-1.78.96-2.04-.76-5.29-2.9-5.32-.78-.01-1.84.73-2.29,1.67-.97,2.01.76,5.11,2.92,5.44Zm-39.4-428.18c.6.66,1.27,1.99,1.82,1.89,1.35-.26,2.25-1.85,1.95-3.97-.12-.84-1.19-2.03-1.74-1.93-1.35.26-2.1,1.79-2.03,4.01Zm155.07,453.48c-.46-.91-.91-2.58-1.37-2.58-1.24,0-2.48.7-3.72,1.12.2,1.09.2,2.82.64,3.14,1.67,1.2,3.34,1.17,4.45-1.68Zm44.25-321.35c.41,2.06,1.24,3.59,2.72,3.04.38-.14.8-2.32.58-3.23-.23-.98-1.14-2.04-1.83-2.16-.43-.08-.99,1.52-1.48,2.35Zm-286.81,338.05c-1.01.48-1.43,1.57-1.03,3.13.11.44.77.9,1.11.79,1.03-.32,1.43-1.51,1.03-3.06-.11-.44-.73-.58-1.11-.86Zm322.73-326.1c.11-.61.23-1.23.34-1.84-.74-.28-1.48-.6-2.23-.76-.06-.01-.43,1.31-.29,1.72.5,1.46,1.29,1.69,2.18.88Zm-213.26,333.43c-.74-1.4-1.54-1.54-2.25-.21-.2.38-.19,1.38,0,1.81.65,1.43,1.5,1.52,2.22.21.2-.37.03-1.21.03-1.81Zm5.94-129.06c-.54-.65-1.06-1.31-1.63-1.88-.03-.03-.42.77-.64,1.19.54.65,1.06,1.31,1.63,1.89.03.03.41-.77.64-1.19Zm-63.53-400.8c.3-.17.76-.22.87-.54.1-.3-.17-.88-.28-1.34-.3.17-.76.22-.86.53-.1.31.17.89.28,1.34ZM117.04,642.46c.14-.46.45-1,.38-1.35-.07-.33-.55-.45-.85-.67-.14.45-.45,1-.38,1.34.08.34.55.46.85.68Zm472.5-440.49l-1.1-.27.36,1.54.75-1.27Zm-124.65,400.79c-1.09.03-1.32.74-.58,1.96.09.15.62-.31.94-.49-.12-.49-.24-.98-.36-1.47Zm-146.87-435.03c-.14.45-.44.98-.37,1.32.07.32.54.45.83.66.14-.44.44-.98.37-1.31-.08-.33-.54-.45-.83-.67Zm224.21,378.54c.14-.45.45-.98.37-1.33-.07-.32-.54-.45-.83-.66-.14.45-.45.98-.37,1.32.08.33.54.46.83.67Zm-168.46,50.17c.14-.44.44-.97.37-1.31-.07-.32-.53-.44-.83-.65-.14.44-.44.97-.37,1.3.08.33.53.45.82.66Zm201.98-264.1c-.11-.47-.15-1.18-.36-1.35-.2-.15-.6.27-.91.44.11.47.15,1.18.36,1.34.21.15.6-.26.91-.43Zm-55.21,250.07c-.29-.21-.64-.67-.86-.56-.21.1-.29.81-.43,1.25.29.21.64.67.86.55.21-.11.3-.8.44-1.24Zm-314.81,76.16c-.11-.48-.15-1.2-.37-1.37-.21-.16-.61.27-.92.44.11.48.15,1.2.37,1.36.21.15.61-.27.92-.44Zm398.02-374.25c-.49-.76-.98-1.52-1.47-2.27-.23.45-.7,1.18-.64,1.29.42.83.95,1.54,1.45,2.28.23-.44.46-.89.67-1.3Zm41.36,223.72l-.96-.25.26,1.35.7-1.1Zm-340.68,45.09l.94.21-.36-1.3-.58,1.09Zm-30.36-221.66l.94.21-.36-1.3-.58,1.09Zm93.27,274.93l-.16,1.51.92-.55-.75-.96Zm78.16,39.21l.76-.82-.85-.64.09,1.47Zm172.76-323.2l.53,1.14.42-1.27-.96.14Zm-186.59-56.19c-.13-.46-.24-1.29-.38-1.3-1.03-.07-1.24.63-.5,1.76.09.14.57-.29.88-.46Zm76.38-29.01l.77-.82-.86-.66.09,1.48Z"/>
    <path class="cls-1" d="m161.53,691.04c.04,3.26-1.06,5.3-2.85,6.32-3.7,2.11-7.03.1-10.15-2.75-1.6-1.45-2.78-3.77-2.07-6.74.42-1.76,1.3-3.77,2.35-4.61,5.3-4.24,12.1.13,12.73,7.77Z"/>
    <path class="cls-1" d="m749,299.77c-.3,1.23-.37,2.92-.95,3.6-3.3,3.91-7.12,5.83-11.32,5.88-3.39.04-5.94-4.79-5.07-9.76.48-2.78,1.7-5.57,3.61-5.22,4.4.82,8.73,2.45,13.08,3.86.28.09.44,1.07.65,1.64Z"/>
    <path class="cls-1" d="m617.09,599.24c.86.06,1.83-.23,2.56.26,2.49,1.67,4.54,4.23,6.02,7.79,1.25,3,.69,8.13-1.02,8.88-2.09.92-3.53-.76-4.55-3.03-1.5-3.33-2.82-6.86-3.98-10.49-.23-.73.61-2.25.96-3.41Z"/>
    <path class="cls-1" d="m635.68,219.16c4.09-.82,7.28-6.13,11.63-5.47.79.12,1.76,1.15,2.16,2.19.4,1.03.58,3.09.17,3.85-1.12,2.09-2.48,4.05-3.98,5.52-5.16,5.05-5.99,4.45-9.8-6.32l-.19.22Z"/>
    <path class="cls-1" d="m351.38,44.8c.09,3.97-1.33,5.39-3.17,5.91-2.25.63-4.52.48-6.16-2.33-.45-.77-.63-2.77-.29-3.59,1.65-3.94,4.26-4.7,6.97-3.4,1.1.53,1.92,2.44,2.64,3.42Z"/>
    <path class="cls-1" d="m489.33,38.03c-.03,2.48-1.06,3.65-2.48,3.81-1.92.21-3.59-.88-3.91-4.04-.23-2.3.88-3.79,2.36-3.86,1.9-.08,3.39,1.18,4.02,4.09Z"/>
    <path class="cls-3" d="m635.86,218.94c-2.51-1.96-4.71-4.34-4.43-9.28.13-2.21.95-4.05,2.48-4.33,1.62-.3,2.66,1.44,2.62,3.66-.06,3.4-.55,6.79-.85,10.18l.19-.22Z"/>
    <path class="cls-1" d="m642.59,578.88c-.22,1.88-1.16,4.02-3.29,3.24-1.41-.52-1.88-2.62-1.57-4.72.32-2.1,1.32-3.58,2.75-3.5,1.47.08,2.23,1.68,2.11,4.99Z"/>
    <path class="cls-1" d="m696.55,591.11c1.27,1.63,1.08,3.61.43,5.54-.64,1.91-1.72,3.89-3.13,2.92-1.46-1-1.12-3.5-.46-5.41.64-1.88,1.51-3.46,3.16-3.04Z"/>
    <path class="cls-1" d="m390.87,715.16c-.5.87-.96,2.39-1.52,2.47-1.52.22-2.32-1.38-1.97-3.55.12-.74,1.34-1.69,1.88-1.48.64.25,1.08,1.65,1.6,2.55Z"/>
    <path class="cls-3" d="m525.22,76.95c.42.13.85.25,1.27.38-.38-.2-.76-.4-1.15-.6l-.12.22Z"/>
    <path class="cls-3" d="m555.83,223.09l-.14.21.14-.21Z"/>
  </g>
  <path class="cls-2" d="m669.61,600.49l-588.64,116.06L33.78,151.16,622.43,35.1l47.18,565.4Zm-580.27,98.12l569.23-112.23-44.51-533.35L44.83,165.27l44.51,533.35Z"/>
  <path class="cls-1" d="m695.91,317.67c-.39.55-.68.96-.94,1.07-.4.17-.99.11-1.33-.2-2.57-2.4-3.42-6.04-3.48-10.15,0-.5.44-1.28.79-1.45.36-.18,1.09.03,1.28.42,1.24,2.57,2.38,5.15,3.51,7.67-.69-10.64-1.29-18.45-1.62-20.31-1.26-7.07-13.39-44.05-13.39-44.05l-11.83,2.46c-6.2,8.87-13.89,11.02-22.18,11.58-.7.05-1.84-1.09-2.07-2.02-.23-.9.26-2.48.79-3.35.44-.74,1.14-1.18,1.77-1.7l-8.35,1.73-21.07,2.42c-1.08,1.49-2.26,2.87-3.58,4.1-5.06,4.71-7.97,10.81-8.44,19.51-.38,7.01-3.53,12.31-7.2,16.57-4.16,4.82-7.35,12.27-13.9,11.48-3.35-9.08,1.46-14.85,4.65-20.88,2.44-4.63,2.72-7.5-.53-11.7-3.44-4.46-3.33-5.6,1.28-9.64,2.32-2.04,3.12-4.25,3.2-6.62l-508.38,58.52c-.82,2.2-1.74,4.31-2.52,6.55-3.64,10.48-7.18,21.02-10.77,31.53l5.21,4.23,35.17,195.35-15.99,75.55c2.48,1.48,5.21,2.51,8.17,3.13,6.27,1.31,11.62,5.02,16.43,10.7,1.79,2.11,3.79,3.97,5.88,5.45,7.97,5.66,12.91,4.53,17.78-6.49,3.44-7.79,8.24-9.31,13.23-7.96,8.68,2.35,17.56,5.03,24.15,14.68,3.07,4.49,6.58,7.72,11.28,5.74,1.79-.75,3.41-2.3,5.2-3.05,4.41-1.84,7.64.59,8.58,6.55.4,2.54.28,5.26.32,7.89.04,2.74.12,5.67,2.57,6,2.04.28,3.61-1.79,4.49-4.08,2.01-5.21,3.63-10.72,5.58-15.99,1.29-3.47,2.77-6.82,4.39-10.01.43-.84,1.65-1.23,2.51-1.23,0,0,0,0,.01,0l2.22-9.99,16.96-13.26,45.22-6.19,35.8-14.14h26.38s-.43,19-.89,39.01c4.3,6.95,11.34,7.96,16.98,1.26,2.15-2.55,3.86-5.86,6.08-8.26,2.13-2.31,4.51-1.35,6.42,1.03,2.2,2.76,3.45,6.4,3.34,10.56-.13,4.61-.77,9.19-.88,13.8-.1,4.53,2.5,7.45,5.58,6.51,2.74-.84,5.45-1.88,8.15-2.93,2.79-1.09,2.89-3.52.52-7.37-1.26-2.05-5.16-2.4-2.86-6.72.56-1.04,3.49.08,5.24.73,3.3,1.24,5.7,4.52,8.02,7.85,2.95,4.23,6.28,5.22,10.31,3.07,2.14-1.14,4.68-2.16,6.84-1.63,5.84,1.42,10.13-2.15,13.89-7.47,5.72-8.1,12.2-14.35,19.73-18.73,4.33-2.52,8.39-5.98,12.48-9.26,5.4-4.34,10.5-9.08,11.14-19.07.13-2.1,1.28-3.92,2.88-3.48,1.28.35,2.45,1.72,3.56,2.86,2.34,2.4.71,8.16,4.64,10.04,2.72-2.12,4.32-6.14,5.96-10.12,1.88-4.57,3.43-9.51,5.74-13.6,2.42-4.28,4.32-8.3,4.38-14.1.04-3.96,2.67-5.5,5.13-5.01,2.74.55,5.37,2.11,8.04,3.29,6.47,2.86,8.43,1.91,11.57-5.85.7-1.72,1.11-3.66,1.76-5.42,1.71-4.68,3.07-10.12,7.83-9.81,2.98.2,4.3,5.59,2.63,15.1-.34,1.96-.45,3.7-.41,5.3,5.8-6.9,13.99-16.41,15.97-17.52,3.14-1.77,23.86-10.61,26.38-5.3,1.4,2.95,5.31,14.08,9.16,25.66.58-1.13,1.18-2.47,1.86-4.23,3.38-8.82,8.01-14.61,14.66-17.3,4.3-1.74,7.44-5.28,10.06-10.25,4.77-9.02,9.56-18.05,14.67-26.68,4.85-8.18,12.42-6.98,16.41,2.31.95,2.22,1.22,5.02,2.08,7.33.35.92,1.53,1.86,2.22,1.72.76-.15,1.65-1.35,2.03-2.41,1.11-3.09.76-6.33.31-9.67-1.35-10.09-1.26-10.03,5.1-12.73,1.73-.74,3.91-1.46,4.9-3.25,4.02-7.3,8.58-14.44,11.23-22.73,3.85-12.04,7.31-24.33,11.6-36.13,2.24-6.18,1.74-9.67-1.89-14.14-3.52-4.34-7.44-8.04-11.05-12.25-.48-.56-.49-2.67-.15-3.68.65-1.94,2.02-2.68,3.52-2,.86.39,1.68,1.14,2.42,1.9,6.25,6.41,9.66,9.8,12.6,10-.36-7.21-.6-13.19-.6-16.44,0-10.13-2.57-60.01-4.5-90.19ZM117.43,620.77c-.31-.21-.79-.33-.87-.65-.08-.32.24-.84.38-1.27.31.2.8.33.87.64.08.33-.24.85-.39,1.28Zm20.33,4.01c-.17.89-1.37,2.13-1.95,1.99-2.18-.55-2.89-2.94-2.45-5.74.14-.84,1.28-1.36,1.96-2.03,2.13.84,2.98,2.92,2.44,5.78Zm69.55,11.74c-.22-.15-.26-.84-.38-1.29.32-.16.73-.57.94-.42.22.16.26.84.38,1.3-.32.16-.73.56-.94.42Zm71.5-312.67l.37,1.23-.96-.2.59-1.03Zm-34.08,252.61c-.34.1-1.02-.34-1.14-.76-.41-1.48.03-2.51,1.06-2.97.39.27,1.02.4,1.14.82.41,1.48,0,2.61-1.06,2.91Zm13.97,31.48c-.9,1.98-2.23,2.5-3.62,1.77-1.91-.99-3.21-2.98-2.34-5.98.59-2.01,2.15-2.42,3.56-1.71,1.93.98,3.05,2.84,2.4,5.91Zm20.35-83.6c-.48,1.8-1.34,3.44-2.18,5.01-6.38,11.88-8.89,12.48-16.83,3.78-1.47-1.61-2.92-4-2.02-6.79.68-2.12,2.42-1.22,4.1-.52,2.68,1.42,5.18.32,7.3-2.97,1.59-2.47,3.25-5.12,5.84-4.79,1.23.16,2.55,1.34,3.48,2.58.51.68.59,2.63.3,3.7Zm3.95,68.23c-.72,0-1.71-.93-2.08-1.84-.74-1.83-.28-3.47,1.15-4.39,1.49-.3,2.63.57,2.95,2.56.33,2.07-.47,3.68-2.02,3.66Zm2.46-45.63c-1.95-.26-3.77-1.43-3.87-4.54-.1-3.18,1.64-4.3,3.64-4.62,2.73.02,4.96,2.72,4.46,5.63-.53,3.05-2.3,3.79-4.24,3.53Zm11.97-64.1c-.58.57-1.28.88-1.94,1.27-.04.14-.09.28-.14.42-.1.06-.2.14-.3.2-.28.96-.51,1.97-.92,2.8-.69,1.37-1.41,1.3-1.7-.09-.07-.36.32-1.13.63-1.39.62-.53,1.31-.9,1.99-1.31.04-.15.09-.28.14-.43.1-.06.2-.14.3-.2.29-.93.54-1.88.91-2.73.18-.43.72-.97.97-.87.97.39,1.02,1.4.06,2.34Zm11.89,52.94l.59-1.04.37,1.24-.97-.2Zm7.88,45.29c-1.43-.32-2.53-1.81-2.44-3.88.14-3.18,1.83-4.16,3.81-3.75,1.4.29,2.49,1.46,2.34,4.91-.26,1.93-1.66,3.18-3.71,2.72Zm39.51.35c-.73,1.25-1.61,1.17-2.27-.2-.2-.41-.21-1.37,0-1.73.73-1.26,1.56-1.14,2.31.2,0,.57.18,1.37-.03,1.72Zm5.46-123.38c-.58-.55-1.12-1.18-1.67-1.79.23-.39.62-1.16.65-1.13.58.54,1.12,1.18,1.67,1.79-.23.4-.63,1.16-.65,1.13Zm11.4,129.85l.17-1.44.77.91-.94.52Zm3.35-56.84c-.45.89-1.54,1.15-2.33,1.7-2.21-.31-3.98-3.26-2.99-5.18.46-.89,1.55-1.6,2.35-1.58,2.2.03,3.95,3.13,2.97,5.07Zm3.4,45.92c-.3-.2-.76-.32-.84-.63-.08-.31.23-.82.37-1.24.3.2.78.32.84.62.07.33-.24.82-.38,1.25Zm53.42,70.86c-3.75,2.37-7.31,1.64-11.38-.53-1.89.3-4.19.92-6.5.97-2.88.06-4.76-4.12-4.03-8.46,1.32-7.85,7.14-12.64,13.1-10.52,4.19,1.49,7.65,4.89,10.72,9.1,2.23,3.06,1.18,7.5-1.9,9.45Zm20.03-24.07l-.09-1.39.87.61-.78.78Zm7.43-46.21c-1.51.38-2.59-.88-2.5-3.05.04-1.01.76-2.36,1.42-2.84,1.33-.94,2.46-.18,3.02,1.86.14,2.11-.52,3.67-1.95,4.03Zm11.82,7.31c-.76-1.17-.52-1.84.6-1.87.12.47.24.93.37,1.4-.33.17-.87.61-.96.47Zm15.45-26.44c-.45-.3-.45-1.96-.66-2.99,1.27-.4,2.54-1.07,3.81-1.06.47,0,.94,1.59,1.41,2.46-1.14,2.71-2.85,2.74-4.56,1.6Zm15.89-109.74c-.25-.52-.49-1.04-.74-1.55.29.46.57.92.86,1.38l-.12.17Zm25.8,116.13c-.22.11-.58-.33-.88-.53.14-.42.23-1.09.44-1.19.23-.11.59.33.89.53-.14.42-.23,1.07-.45,1.18Zm9.01-229.14c-1.4.66-2.83.08-3.08-2.26-.08-.77.86-2.27,1.52-2.56,1.38-.6,2.72-.17,3.12,2.35-.47.79-.9,2.15-1.57,2.47Zm13.65,193.57c-.3-.21-.77-.33-.85-.64-.08-.32.24-.83.38-1.25.3.2.78.32.85.63.08.33-.24.83-.38,1.26Zm17.31-195.46c-.45-.05-.93-.31-1.3-.66-4.64-4.32-6.55-9.13-4.76-12.31.47-.84,1.7-1.55,2.41-1.31,3.86,1.27,6.01,5.16,6.52,11.2-.27,2.33-1.29,3.28-2.87,3.1Zm16.08-7.67c-.22-.15-.25-.83-.37-1.27.32-.16.72-.56.93-.42.22.16.26.83.37,1.28-.32.16-.72.55-.93.41Zm25-9.73c-.43-.03-.93-.28-1.27-.65-2.12-2.38-4.69-4.59-3.32-9.28.23-.8,1.59-1.54,2.32-1.36,3.18.77,4.62,3.27,4.92,7.9-.2,2.19-.98,3.53-2.65,3.4Zm3.91-35.13c-.51-.71-1.05-1.38-1.48-2.17-.06-.11.43-.8.66-1.23.5.72,1,1.44,1.51,2.16-.22.39-.45.81-.69,1.24Zm16.09,36.09l-.55-1.08.98-.13-.43,1.21Zm-.02-39.71c-1.72,1.37-3.69,1.19-5.37-.22-1.89-1.58-2.22-4.14-1.12-6.75.8-1.91,2.25-2.35,3.68-1.66,1.85.89,3.23,2.64,3.85,5.38-.33,1.11-.45,2.78-1.05,3.25Zm26.25,216.29l-.26-1.29.98.24-.71,1.05Z"/>
  <path class="cls-1" d="m250.56,178.48c4.1-.7,73.82-35.02,73.82-35.02l15.99-29.37c-2.85-4.46-5.34-9.5-7.81-14.51-1.7-3.46-.98-6.51,1.35-8.74,1.92-1.83,4.1-3.23,5.73-5.55,3.03-4.34,3.25-11.74.91-17.39-1.72-4.15-4.42-4.22-9.34-.24-4.07,3.29-6.31,2.5-7.15-3.38-1.36-9.55-2.52-19.21-3.27-28.92-.93-11.92-3.66-21.42-11.34-26.55-3.26-2.18-6.13-5.73-9.32-8.8-7.12,12.53-14.02,24.39-18.26,39.39-1.67,5.93-4.95,7.04-7.61,2.71-5.36-8.71-12.38-14.05-17.96-22.46-6.3-9.48-14.21-15.3-23.67-11.55-3.19,1.27-6.31-.2-9.47-.64-5.98-.83-8.57,1.25-10.56,9.76-1.99,8.52-3.05,17.54-4.69,26.27-1.15,6.1-5.02,9.06-8.61,6.14-3.18-2.58-5.94-6.36-8.96-9.42-3.11-3.16-6.09-2.68-8.57,1.38-1.24,2.02-2.09,4.62-3.36,6.59-7.18,11.15-10.75,25.7-15.6,39.01-7.11,19.48-14.26,38.94-20,59.47l10.24,26.92s93.42,5.6,97.52,4.9Zm77.16-64.11c.54-.11,1.61,1.1,1.72,1.94.3,2.13-.6,3.74-1.94,4-.54.11-1.21-1.23-1.8-1.9-.06-2.23.68-3.77,2.01-4.03Zm-36.72-50.47c.11.46.38,1.05.28,1.35-.1.32-.56.37-.86.54-.11-.46-.37-1.04-.27-1.35.1-.32.55-.37.85-.54Z"/>
</svg>