<?xml version="1.0" encoding="UTF-8"?>
<svg id="Layer_1" data-name="Layer 1" xmlns="http://www.w3.org/2000/svg" viewBox="0 0 140 53.95">
  <defs>
    <style>
      .cls-1 {
        fill: #2985e2;
      }
    </style>
  </defs>
  <path class="cls-1" d="m96.56,3.97c1.64-.11,2.44.33,3.28.63,1.27.46,2.65.82,3.86,1.35.73.32,1.4.6,1.8,1.1.24.3.59.58.97.83.63.42,1.22.45,1.81.04.78-.54,1.66-.64,2.74-.39.2.05.43.06.65.09,1.47.17,1.6.11,1.71-.75.06-.51.53-1,.22-1.53-.1-.17.13-.3.43-.33.56-.06.97-.2,1.29-.49.3-.26.77-.36,1.29-.23.59.14.72.43.61.77-.05.15-.1.31-.12.46-.04.38.24.71.89.76,1.13.09,1.69.53,2.16,1.03.26.28.57.45,1.12.48.13,0,.33.02.37.07.58.64,1.55.38,2.45.45,1.16.09,2.51.22,3.12,1.01.13.17.42.26.71.34.21.05.43.1.62,0,.15-.08.1-.19.05-.29-.05-.1-.13-.2-.16-.3-.1-.41.07-.55.79-.66.35-.05.71-.06,1.04-.13.65-.13,1.08,0,1.19.37.12.41.49.64,1.19.73.49.06.87.25,1.22.46.57.32,1.09.68,1.95.78.41.05.42.25.06.39-.18.07-.4.11-.62.14-.84.11-1.39.35-1.24.92.07.28-.29.41-.54.59-.74.54-.7.68.34,1.05.48.17.45.36.25.58-.44.48-.44,1-.38,1.52.08.66.62.86,1.71.67.5-.09.73-.26.39-.51-.49-.37-.06-.63.19-.92.38-.45.77-.88,1.63-1.08.27-.06.53-.04.75.08.3.16.34.35.19.57-.37.56-.74,1.11-1.09,1.67-.12.19-.23.4-.26.6-.04.26.16.46.64.51.52.06,1.11.03,1.41.35.38.41.76.85.62,1.33-.2.68-.08,1.31.11,1.99.2.72-.43,1.42-1.19,2-.79.6-1.57,1.19-1.88,1.94-.24.6-.88,1.03-1.88,1.22-.81.16-1.18.53-1.58.9-.2.19-.34.4.03.56.32.13.6,0,.82-.13.89-.51,1.88-.95,2.89-1.38.77-.33.88-.28,1.11.25.26.62-.27,1.13-.76,1.6-1.2,1.16-2.09,2.39-2.88,3.65-.5.81-1.05,1.6-2.06,2.25-.28.18-.44.39-.53.62-.09.23-.17.51-.51.62-1.4.47-1.64,1.39-2.34,2.11-.75.77-1.36,1.62-1.93,2.46-.08.12-.1.27-.23.36-1.59,1.08-2.41,2.45-4.31,3.44-1.79.92-2.88,2.17-2.83,3.64,0,.22-.01.42-.29.58-1.09.59-1.52,1.41-1.95,2.19-.62,1.11-1.9,1.7-3.72,2-.11.02-.27,0-.37-.03-.16-.06-.19-.18-.11-.28.12-.14.26-.27.42-.39.4-.32.71-.65.84-1.05.19-.58,1-.97,1.48-1.47.27-.28.35-.52.37-.85.05-1.08.13-2.18,1.44-3.07.38-.26.6-.58.59-.93,0-.27-.38-.38-.72-.2-.63.33-1.42.57-1.25,1.25.13.54-.69.97-1.18,1.43-.74.69-1.91,1.15-2.69,1.81-.88.75-1.19,1.66-2.04,2.43-.43.38-.86.79-1.15,1.23-.34.52-1.13.63-1.88.78-.44.09-.68-.07-.75-.3-.09-.31.17-.56.55-.76.75-.39,1.36-.82,1.37-1.45,0-.12.1-.27.23-.36.97-.68,1.46-1.52,2.35-2.22.62-.49,1.01-1.04,1.5-1.56.11-.12.16-.25.03-.37-.49-.47-2.43-.48-2.89-.01-.18.18-.31.37-.46.56-.22.26-.24.49.24.68.52.2.46.45.03.63-1.02.42-1.39,1.07-1.85,1.68-.72.94-1.94,1.6-3.39,2.14-.22.08-.48.18-.73.06-.2-.1-.12-.24-.07-.36.27-.6.46-1.22,1.14-1.73.16-.12.35-.27.36-.41.04-.63.52-1.14,1.2-1.6.28-.19.35-.42.13-.65-.24-.25-.64-.34-1.13-.33-.82.02-1.61.36-1.79.91-.36,1.08-1.28,2.04-1.63,3.12-.2.62-1.01,1.08-1.81,1.51-.16.09-.38.15-.61.08-.23-.07-.22-.21-.19-.34.12-.47.53-.88.91-1.29.13-.14.39-.26.4-.4.03-1.16,1.48-1.95,2.16-2.94.15-.22.4-.41.35-.66-.03-.16-.12-.31-.43-.35-.25-.04-.48.03-.57.15-.47.58-1.47,1-1.58,1.69-.09.54-.66.83-1.46,1-.5.11-1.02.19-1.53.29-.27.05-.54.05-.76-.07-.48-.26-1.04-.36-1.69-.41-.66-.05-1.18-.62-1.14-1.18.03-.34.15-.67.22-1,.03-.13.03-.27-.24-.33-.24-.05-.5,0-.59.11-.75.95-2.78,1-3.75,1.8-.3.25-.7.19-.95-.08-.32-.34-.57-.7-.68-1.09-.18-.66-.52-.78-1.63-.55-2.36.48-3.76,1.5-4.57,2.83-.18.3-.36.58-.78.79-.24.12-.52.25-.84.17-.71-.17-1.31-.01-1.9.19-.86.29-1.84.32-2.74.25-1.87-.13-2.73.52-3.31,1.34-.46.66-1.26,1.13-2.12,1.57-.67.34-1.09.25-1.36-.25-.22-.39-.38-.8-.61-1.19-.32-.54-.63-.7-1.56-.62-.8.06-1.28-.08-1.63-.48-.17-.19-.46-.39-.83-.33-1.18.17-2.41-.24-3.56.11-.71.21-1.12-.28-1.74-.25-.56.03-.95.42-1.61.27-.33-.08-.67-.15-.99-.24-1-.27-1.06-.3-1.85.18-1.36.83-2.84,1.57-4.45,2.23-.45.18-.77.42-1.07.68-.56.51-.86.58-1.77.36-.71-.18-1.41-.31-2.18-.32-.42,0-.73-.16-1.07-.3-1.03-.42-1.6-.41-2.43.12-.52.33-.98.36-1.65.18-.96-.26-1.89-.58-2.96-.7-.6-.07-1-.36-1.25-.66-.62-.76-1.82-1.19-2.86-1.7-.29-.15-.64-.18-1.01-.15-.4.04-.83.05-1.17.16-1.44.47-2.65.28-3.72-.38-.61-.38-1.34-.5-2.19-.4-.6.07-1.06.02-1.24-.37-.14-.31-.56-.46-1.02-.57-.7-.16-1.35-.41-2.11-.49-.04,0-.1,0-.13-.02-1.2-.5-2.48-.89-3.93-1.07-.38-.05-.48-.28-.54-.5-.07-.26-.14-.51-.26-.76-.1-.2-.24-.43-.66-.43-.44,0-.54.22-.67.42-.33.54-.69,1.07-1.01,1.61-.41.7-1.3,1.23-1.93,1.86-.3.3-.89.43-1.5.44-1.31.03-2.55,0-3.47-.71-.47-.36-1.2-.61-1.84-.89-.45-.2-.94-.24-1.51-.13-1.49.29-2.62-.1-2.94-.99-.08-.23-.14-.47-.09-.69.13-.64.14-1.31.38-1.92.33-.86.68-1.77,1.78-2.47.09-.06.22-.11.25-.18.39-.85,1.21-1.58,1.8-2.37.41-.54.71-1.11,1.32-1.59.53-.41.63-.91.87-1.38.18-.35.28-.7.71-.99.11-.08.22-.17.26-.27.52-1.47,1.96-2.76,2.55-4.22.1-.26.29-.48.55-.7.56-.47,1.12-.94,1.18-1.54.01-.1.08-.21.19-.29,1.15-.85,1.72-1.87,2.36-2.86.44-.68.99-1.34,1.69-1.94,1.12-.97,1.7-2.12,3.08-2.99.52-.33.34-.64-.14-.96-.46-.32-.39-.39.24-.54,1.43-.35,2.42-.94,2.7-1.85.17-.55,1.01-.93,1.11-1.48.16-.89,1.33-1.5,1.79-2.28.71-1.2,1.91-2.28,2.48-3.5.07-.15.14-.31.3-.43,1.54-1.19,2.35-2.61,3.63-3.88.65-.64,1.54-1.2,1.99-1.92.17-.28.68-.48,1.13-.65.73-.27,1.11-.25,1.77.11.03.02.06.04.09.06,1.44.79,1.64.76,2.49-.26.29-.35.54-.7.68-1.09.31-.82,1.09-1.12,2.52-1.03.4.03.8.11,1.18-.01.84-.26,1.6-.09,2.44.04,1.64.25,2.93.86,4.42,1.25.43.11.63.35.92.55.63.43,1.63.41,1.94-.11.42-.71,1.42-1.23,1.63-2.02.18-.66,1.45-.87,2.27-.4,1.01.58,2.13,1.02,3.4,1.35.61.16.87.41.77.81-.04.16.1.32.39.36.33.05.48-.11.6-.24.29-.33.59-.64,1.19-.81.49-.14.76-.35.51-.69-.1-.13-.05-.26.23-.31.19-.03.4.02.45.12.39.76,1.57,1.18,2.25,1.82.27.25.33.53.5.8.43.65.92.82,2.06.6.85-.16,1.5-.11,2.21.24.6.3,1.32.48,1.72.94.29.32.9.41,1.52.21.2-.06.39-.14.6-.17.53-.1.87.03.99.34.06.15.02.31.09.46.06.15.2.31.52.31.26,0,.34-.15.4-.27.21-.48.67-.9,1-1.36.09-.12.24-.23.51-.18.2.03.26.14.27.25.03.28.04.57.06.85.01.23-.01.47.18.69.14.16.37.24.61.06.21-.17.4-.35.56-.53.35-.39.75-.76,1.22-1.11.83-.62.87-1.4,1.16-2.12.05-.13.03-.26.09-.38.31-.63,1.44-.83,2.33-.43.17.08.31.18.46.28,1.11.7,2.37.57,2.96-.34.24-.37.5-.72.96-1.01.63-.4,1.15-.47,1.85-.14.96.47,1.68,1.07,2.36,1.68.23.21.05.39-.19.56-.45.32-.17.54.36.66,1.08.25,2.2.39,2.86.44Zm25.48,34.59c1.21-.4,1.85-.95,2.66-1.37.46-.24.72-.53.54-.9-.15-.31.07-.56.46-.76.81-.42,1.31-.98,1.96-1.47.22-.17.38-.35.45-.56.04-.13.04-.26-.15-.36-.24-.12-.5-.1-.74,0-.54.2-.91.49-1.24.8-1.13,1.08-2.25,2.17-3.38,3.25-.4.38-.61.79-.57,1.38Zm7.16-24.95c0,.15-.02.31,0,.46.03.17.22.28.53.29.38,0,2.46-1.16,2.38-1.36-.15-.38-.37-.74-.58-1.11-.07-.12-.24-.22-.46-.26-.85-.16-2.2.54-2.05,1.06.09.3.31.6.17.92Zm.96-3.51c-.73-.05-1.01.1-1.16.34-.15.25-.25.52.12.72.37.2.74.03,1.08-.08.19-.06.37-.14.56-.21.26-.1.6-.18.56-.39-.04-.25-.42-.3-.77-.35-.21-.03-.44-.04-.4-.04Zm-12.14,3.12c-.04.13-.05.26.16.34.09.03.27.04.36,0,.5-.18.65-.46.59-.78-.03-.13-.17-.25-.43-.23-.56.06-.52.36-.65.59-.01.02-.02.05-.03.07Zm-22.13,31.83c-.02-.12-.15-.18-.34-.17-.43.02-.73.16-.81.41-.03.11.06.2.26.22.36.04.88-.24.89-.46Zm31.06-29.73c-.08-.16-.28-.19-.51-.16-.27.03-.5.11-.51.29,0,.15.2.21.44.2.33-.02.56-.12.58-.32Zm-4.97,23.95c0-.1-.05-.18-.19-.19-.47-.02-.58.18-.62.39-.01.06.1.18.16.18.46.01.53-.21.65-.38Zm3.31-22.79c-.25.03-.36.13-.31.27.05.14.23.22.47.2.26-.02.37-.13.31-.27-.05-.14-.22-.21-.47-.21Zm6.55,13.7c-.02-.09-.1-.16-.25-.15-.29.03-.44.15-.43.32,0,.08.11.15.25.14.32-.02.4-.16.43-.31Zm-12,12.15c.23-.02.41-.08.43-.22.01-.08-.1-.14-.24-.14-.25,0-.39.08-.42.22-.02.08.08.13.23.14Z"/>
</svg>