<?xml version="1.0" encoding="UTF-8"?>
<svg id="Layer_1" data-name="Layer 1" xmlns="http://www.w3.org/2000/svg" xmlns:xlink="http://www.w3.org/1999/xlink" viewBox="0 0 1919 279.32">
  <defs>
    <style>
      .cls-1 {
        fill: url(#linear-gradient);
      }
    </style>
    <linearGradient id="linear-gradient" x1="959.5" y1="300.91" x2="959.5" y2="-68.15" gradientUnits="userSpaceOnUse">
      <stop offset="0" stop-color="#0d0d0d"/>
      <stop offset="1" stop-color="#333"/>
    </linearGradient>
  </defs>
  <path class="cls-1" d="m1756.05,10.19c2.6.57-.24,1.34-3.38,1.85-4.98.7-8.08.86-9.25.53-2.04-.58-.44-1.36,5.11-2.14,2.95-.41,6.17-.54,7.52-.24Zm-139.88,10.05c-11.28.27-23.04.62-35.46,2.25-8.66,1.14-8.82,2.24-6.63,3.11,1.28.51,4.73.49,10.28-.1,7.11-2.35,14.82-2.1,23.53-2.05,4.7.03,10.24-.87,12.85-1.8,2.79-.99.75-1.54-4.57-1.41Zm-80.93,6.7c2.03.86,5.53,1.55,14.14.78,4.79-.43,5.4-1.24,5.35-1.86-2.41-.89-6.74-1.27-15.64-.28-3.43.38-4.74.98-3.85,1.36Zm166.78-11.45c-3.24.41-5.38.94-3.61,1.26,1.52.27,4.76.06,10.78-.7.33-.04,2.5-.52.62-.84-1.59-.28-4.78-.09-7.79.29Zm-17.94.58c-.55-1.08-4.56-1.41-13.29-.58-3.16.3-6.24.83-6.19,1.27.14,1.14,5.77,1.31,12.67,1,4.85-.22,6.4-.98,6.81-1.68Zm-272.38,21.39c3.93.28,5.55,1.05,8.23,1.6,5.23-.1,7.22-.87,9.62-1.51,10.09-2.7,20.49-3.98,33.88-3.41,7.02.3,16.97.95,25.83-1.67,8.22-2.43.89-3.32-11.23-2.89-15.41.56-18.98-.85-22.4-2.46-.1-.05-.26-.09-.38-.13-2.48-.94-8.45-1.22-17.38-.43-8.36.74-12.56,1.96-14.02,3.22-1.07.92-1.42,2.04-8.2,2.7-.28.03-.5.06-.81.08-10.18.85-7.65-.84-9.85-1.55-.57-.19-.74-.43-1-.66-12.52,4.71-11.02,5.79,7.69,7.12Zm-7.36-7.25c-.11,0-.23,0-.34,0-.04,0-.09.02-.13.03.05.04.08.08.13.12.13-.05.21-.08.33-.13h0Zm16.23-3.29c8.7-1.54,7.82-2.38.73-2.46-7.81-.09-16.31-.96-26.5,1.13-2.77.57-4.48,1.09-5.46,1.56-2.56,1.24.38,2.15,5.84,2.7,2.34.23,5.8.25,8.83.35,1.27-.25,2.51-.51,3.76-.77,4.15-.85,8.27-1.71,12.8-2.51Zm102.04-3.93c-1.01-.15-1.65-.47-3.12-.43-9.32.24-18.58.39-28.33.91-9.45.51-16.01,1.94-16.67,3.32-.6,1.26,6.89.6,13.05.11,9.12-.73,18.25-1.43,27.37-2.2,4.58-.38,7.49-.99,7.7-1.71Zm-16.91,4.96c-8.36,1.62-5.89,2.43.39,3.27,5.15-1.69,12.18-3.13,5.1-3.69-.87-.07-4.33.2-5.49.42Zm284.8-19.6c3.45-.32,2.65-.89,1.9-1.22-1.15-.5-3.76-.74-8.41-.36-3.62.3-5.44.77-4.5,1.27,2.59.36,5.61.8,11.01.3Zm112.59-7.44c-11.04.22-15.15-1.13-25.68-.88-7.1.17-14.86.72-19.29,2.17-5.65,1.85,1.39,2.13,8.76,2.06,11.67-.11,23.47-1.87,36.21-3.36Zm-18.25,8c10.56-.33,21.12-.73,34.17-2.83h0c-13.32-.45-23.93,1.33-34.17,2.83Zm-81.56,18.59c4.21-1.51,9.51-2.86,6.59-3.64-3.38-.91-7.56-1.77-15.33-1.87-6.8-.09-11.99.71-12.4,1.89-.81,2.32,1.04,4.3,21.14,3.62Zm115.73,92.76c-2.99.34-5.98.7-8.93,1.08-9.94,1.29-19.8,2.28-29.64,3.18-7.39.4-14.91.99-21.79,1.88-4.82.4-9.65.81-14.49,1.24-11.21,1-26.49,1.78-28.18.21-.41-.38-.91-.78-1.32-1.21-1.13-1.18-1.54-2.54,2.95-4.04,6.01-2.01,16.9-2.43,26.15-3.01,22-1.36,43.61-3.45,64.73-6.11,3.68-.46,7.46-.95,10.53-1.46v-9.13c-1.52.08-3.07.18-4.6.28-17.84,1.18-35.69,2.38-53.52,3.54-5.04.33-9.32.3-9.63-.56-.27-.74,3.97-1.11,7.6-1.59,20.11-2.65,40.07-5.35,60.15-8.01v-10.34c-21.92,1.68-41.6,2.21-55.39.11.82-.09,1.63-.16,2.47-.26,12.69-1.47,18.43-3.27,15.96-5.02-2.45-1.73-8.61-1.59-30.79.85-7.86.95-21.15,1.9-17.75,3.93.4.23.95.43,1.61.62-.64.42-.23.8,1.09,1.1,3.89.89,6.74,1.9,7.35,3.21.6,1.25-.92,2.53-10.62,3.53-7.59.79-12.79.54-14.83-.41-2.08-.97-3.74-2-4.89-3.07-1.54-1.44-6.29-1.99-14.78-1.57.11-.13.44-.27.4-.4-.42-1.13-6.78-1.21-14.06-.94-2.91.11-6.81.22-9.06.57-10.35,1.62-20.21,2.48-29.91,3.06-8.77.53-17.4.83-26.11,1.25,16.71-2.63,32.46-4.59,48.62-6.27,2.44-.25,4.86-.52,7.32-.76,14.09-1.37,28.32-2.61,42.23-4.13,9.52-1.04,14.89-2.19,16.28-3.27,5.84-.27,11.66-.55,17.47-.86,22.6-1.24,45.04-2.97,67.41-4.93v-4.03c-7.42.44-14.83.88-22.23,1.27-22.95,1.2-46.96,4.2-70.64,5.24-1.65.07-3.27.18-4.88.32-4.28-.08-9.21.09-14.89.54-13.25,1.04-26.69,1.9-39.73,3.22-15.15,1.53-30.34,2.82-45.54,4.06-20.16,1.65-40.33,3.2-60.43,5.05-2.57.13-5.13.25-7.65.33-.68.2-1.18.38-1.55.54-1.28.13-2.56.24-3.84.37-5.7.57-11.4.91-15.37.43,2.63-1.42,4.17-2.3,4.57-2.99.07-.11.18-.23.18-.33,10.82-1.18,21.71-2.37,32.28-3.93-2.05.62-3.09,1.19-2.41,1.55,2.91,1.57,12.4.33,19.6-.34,14.9-1.61,21.89-3.04,20-4.15-.46-.27-1.27-.43-2.1-.59,8.23-.45,16.36-.69,23.88-.73,14.97-.07,29.1-.83,43.32-3.71,9.79-1.98,19.05-2.47,28.83-2.53,4.47-.03,11.05.1,13.75-.34,22.33-3.68,41.02-3.86,61.03-4.28,9.05-.19,24.13-1.43,29.77-2.96,4.26-1.16,9.03-2.05,14.05-2.8v-16.62c-1.92.2-3.85.39-5.73.6-20.43,2.25-39.3,2.69-58.17,5-20.4,2.5-40.78,3.4-58.17,4.13-36.39,1.54-74.88,4.33-113.24,5.43,10.08-3.01,9.51-4.66-2.79-5.42-12.63-.78-11.55-5.12-1.86-8.21,3.37-1.08,7.89-1.46,13.27-1.85,10.51-.75,17.59.09,14.46,1.15-8.49,2.86-.11,1.8,9.48,1.17,10.89-.72,20.42-.85,16.27,1.57-2.35,1.37-3.13,2.72-15.75,2.63-8.37-.06-13.74,1.27-15.87,2.6-2.76,1.73.53,2.99,11.36,2.11,35.56-2.89,68.99-3.34,106.69-8.02,26.07-3.23,54.9-5.54,82.43-6.17,5.3-.12,11.32-.61,17.62-1.2v-5.08c-11.94.62-23.68,1.1-35.72,1.8-15.54.91-29.99,1.51-42.02,4.89-6.47,1.82-15.43,1.82-21.06,1.31-10.87-1-5.41-5.35,10.47-8.76,9.36-2.01,24.82-2.53,38.5-1.26,3.23.3,5.76.75,11.78.28,10.15-5.3,3.29-6.44-26.97-4.21-52.4,3.86-104.47,6.45-157.54,12.57-9.31,1.07-15.78.8-21.1.28-4.28-.42-4.76-1.24-.68-2.41,4.12-1.18,10.83-2.15,16.17-1.95,13.88.52,28.29-.84,43.57-3.1,7.7-1.14,13.75-1.34,19.95-1.14,5.98.19,13.48-.17,20.13-1.48,7.18-1.41,2.62-2.13,2.03-3.08-.83-1.32-3.23-2.36-12.51-2.31-1.8,0-4.27.06-4.89-.12-16.69-4.93-58.05-.33-91.88,2-22.47,1.55-44.89,2.66-67.99,4.8-12.61,1.17-20.85.65-25.77-.56-6.78-1.67-18.04-1.32-32.35,1.28-8.93,1.62-15.14,1.85-21.92,1.5-8.59-.44-19.05.72-30.26,1.88-1.24,1.47,16.72.78,5.32,3.33-10.14,2.28-22.35,4.09-36.23,5.28-5.85.5-8.56-.11-6.97-1.06,1.06-.63,4.47-1.36,6.04-2.02,2.92-1.24,16.11-3.14,8-3.59-10.79-.61-18.86,1.89-25.87,3.4-18.59,4.02-19.18,8.33-3.09,10.04,7.38.78,14.54,1.66,15.02,3.61-8.53,1.39-9.32.09-13.56.09-4.22,0-8.48-.41-12.72.91-8.65,2.71-13.07,1.79-16.2.93-3.04-.83-3.53-2.02-6.05-2.93-2.24-.81-5.85-1.54-13.61-1.12-13.32.71-19.85.63-15.07-2.05,2.8-1.57-5.77-1.79-15.74-.27-12.49,1.9-24.65,2.29-36.9,3.34-7.43.63-16,.95-17.88.05-5.06-2.43-15.97-.62-27.8,1.24-18.4,2.89-36.99,5.57-58.56,7.14-23.05,1.67-36.68,1.19-36.81-1.65-.22-4.86,4.74-6.23,33.81-9.08,6.11-.6,12.69-.9,16.35-2.58-15.48-.06-33.13,1.92-49.87,3.12-10.36.74-22.82,1.8-13.99-1.36,2.78-1-2.49-1.15-4.09-1.69-6.39-2.16-4.83-2.52,16.13-3.9,14.25-.94,19.38-2.02,17.03-3.66-1.86-1.31-7.06-1.54-17.43.23-1.76.3-3.12.76-4.91.95-35.15,3.83-70.44,6.05-105.64,9.06-9.54.81-13.77-.51-5.23-2.66,2.04-.51,4.1-1.02,6.28-1.52,5.26-1.22,11.18-2.51,11.42-3.44.13-.51-1.4-.91-5.66-1.14-9.16-.49-31.22,1.67-39.65,3.86-2.95.76-5.1,1.56-7.32,2.38-1.07.39-2.15.79-3.35,1.2-2.29-.05-3.56-.21-4.3-.44-2.19-.68.33-1.9-4.68-2.1-3.24-.13-6.75-.13-11.1.29-5.18.5-6.26,1.19-7.19,1.86-1.4,1.02-1.76,1.76-.64,2.29,2.37,1.12,11.38,1.26,31.52.82-6.95,2.38-26.77,4.34-27.18,6.78-.27,1.56,7.48,1.72,21.09,1.53-34.96,4.07-20.77,7.42-41.44,11.85,32.32-2.62,58.9-4.76,85.49-6.95,7.26-.6,14.54-1.35,21.82-1.99q38.89-3.43,55.14.65c-18.3,2.4-30.59,5.69-49.44,8.22-17.75,2.38-32.4,3.71-44.21,2.36-8.91-1.02-18.18-.29-27.12,2.29-10.03,2.9-25.51,3.7-39.43,5.31-16.93,1.96-23.84,1.25-32.91.44-13.59-1.22-52.39,2.83-69.52,7.05-2.72.67-4.39,1.38-6.69,2.07-7.59,2.28-16.32,3.02-25.88,2.56-3.04-.15-5.88-.35-9.28-.39-16.01-.2-24.46.75-36.3,4.11-3.52,1-4.34,2.07-12.18,3.05-11.42.34,4.01-2.99-7.42-2.64-10.43.32-20.56,1.59-30.46,2.9-16.72,2.2-33.55,3.91-51.15,5.63-14.04,1.37-29.26,3.03-43.93,4.59-10.69,1.14-19.11,1.51-21.71.12-2.66-1.43-17.54-.59-18.94-2.25,9.54-1.64,13.7-.83,19.04-.74,7.54.12,13.27-.37,17.12-2.03,6.56-2.83,21.04-4.03,34.37-5.16,20.72-1.77,41.18-3.18,61.82-5.83,16.8-2.16,29.05-1.74,36.49-.35,14.18-2.08.19-3.74,17.16-5.4,12.29-1.2,13.59.96,23.98.46q11.38-4.76,40.6-6.31c8.04-.43,16.46-.99,24.64-1.73,9.97-.91,16.86-1.17,24.39-.7,13.36.85,18.93.07,21.35-2.86,1.12-1.36,3.81-2.23,12.13-3.18,15.01-1.72,14.68-4.3,27.9-6.36,6.91-1.08-2.72-1.56-5.22-2.25-3.43-.95-11.43-1.03-19.99.13-22.93,3.1-48.74,4.78-70.09,8.02-32.42,4.91-65.84,6.42-98.44,9.86-3.82.4-8.26.54-11.95.62-2.54.05-5.4-.08-6.11-.38-1.26-.54,1.68-1.31,5.93-1.85,7.95-1.01,16.24-1.89,24.1-2.92,2.3-.3,4.88-1.03,5.18-1.41.53-.71-2.96-.76-7.38-.55-7.81.37-16.01,2.28-25.13,1.83,6.36-2.46,25.06-3.22,31.92-5.51,4.84-1.62,9.92-3.23,13.49-4.79,1.38-.6,2.57-1.2,3.39-1.78-2.18-.09-3.44-.27-5.08-.19-22.88,1.2-38.31,3.22-46.69,6.91-1.11.49-2.12,1-2.99,1.55-5.88,3.76-22.33,7.2-48.9,9.07-5.97.42-12.42,1.25-18.39,2-9.86,1.24-18.51,2.06-23.84.95-3.4-.71-9.23-.8-16.78-.38-10.28.56-15.84.15-17.56-1-.27-.19-.47-.39-.55-.62-.48-1.38-4.05-2.03-15.19-.71-8.96,1.07-13.85,2.37-14.6,3.58-.14.23-.19.46-.03.68,1.03,1.37,4.48,2.47,5.9,3.83,2.03,1.95-9.96,2.76-16.79,4.02-8.27,1.52-14.42,1.83-21.49,1.35-23.14-1.58-48.42.34-75.82,5.83-11.68,2.34-23.3,4.46-38.39,6.01-8.97.93-14.33,1-13-.57.93-1.1-.27-2.05,3.43-3.34,3.18-1.11,11.66-2.9,2.4-2.85-9.4.05-23.1.2-31.83,2.4-25.53,6.42-54.92,6.86-81.7,7.98-16.05.67-26.7,1.67-40.12,4.07-16.84,3.02-33.85,6.56-56.33,6.05-8.38-.19-19.32,2.75-29.28,2.63-3.81-.84,8.94-2,6.29-2.83-1.15,0-2.82-.12-4.32.03-36.01,3.55-72.45,6.81-107.91,10.76-35.45,3.95-71.46,7.33-107.25,10.92v130.09h1919V120.26Zm-6.97-106.22c-4.1.57-5.94,1.28-4.99,1.8,1.26.68,5.1.73,10.93.11.37-.05.69-.1,1.03-.16v-2.38c-2.04.07-4.45.28-6.97.63Zm-23.35,13.52c11.9.29,20.28-.38,30.32-1.38v-.92c-8.13-.17-16.88.78-30.32,2.3Zm-524.67,14.89c6.72-.96,13.35-1.99,14.8-3.45-1.6-.11-3.16-.41-5.56-.35-4.71.12-9.82.38-14.89.69-7.4.44-15.08,1.16-19.96,2.47-4.04,1.09,1.66,1.19,4.13,1.57,5.13.79,12.85.31,21.47-.92Zm488.08-27.26c-7.13.84-4.32,1.51-3,2.06,1.83.77,2.44,1.84,11.3,1.15,8.29-1.39,5-2,3.59-2.69-1.52-.74-4.3-1.43-11.88-.53Zm-66.39,1.87c1.63-.17,4.04-.63,4.28-.85.24-.22-1.43-.42-2.91-.41-3.16.02-5.68.43-7.03,1.02-.08.56,2.4.57,5.66.24Zm44.97,6.85c1.28-.14,2.08-.61,3.11-.93-.85-.15-1.69-.31-2.53-.46-1.37.31-3.29.63-3.98.92-1.23.52-1.01.96,3.39.47Zm-2.19-11.29c-1.07-.23-3.74-.5-8.38.04-4.74.55-6.69,1.32-4.95,1.78,1.74.46,6.14.25,10.45-.32,3.15-.41,4.68-.92,2.88-1.5Zm-180.17,13.81c-1.06.2-1.58.78-.8.82,8.51.44,17.14-.53,25.75-1.99-.38-.37-.15-.59-.7-.6-7.58-.24-15.73.18-24.25,1.78ZM565.26,98.59c4.07-.43,8.15-.94,12-1.49,7.07-1,18.91-1.84,16.22-3.39-.57-.33-1.71-.5-3.18-.58-2.66-.14-6.48.05-10.5.32-2.22.15-4.49.32-6.65.47-2.04.15-4.14.37-6.21.55-2.01.24-4.07.47-6.03.73-7.73,1.03-18.27,2.1-17.13,3.54,1.27,1.62,11.53.88,21.49-.17Zm-66.32-9.14c21.1.15,48.94-2.05,73.99-6.03-24.17,2.24-48.19,3.13-73.99,6.03Zm213.9-3.59c-3.14.48-3.66.96-1.4,1.13.98.07,3.9-.08,5.13-.28,2.98-.48,3.24-.92,1.52-1.19-1.76.1-3.92.13-5.26.33Zm-225.74,16.79c-6.35.75-7.18,1.51-5.35,2.13,1.28.43,2.75.89,8.4.15,3.58-.8,7.28-1.68,6.36-2.35-.8-.59-5.23-.42-9.41.08Zm351.53-26.4c-7.96.81-13.27,2.03-14.27,3.2-.91,1.08,5.52.54,10.13.26,9.05-1.01,17.25-2.15,16.45-3.54-.4-.72-6.96-.46-12.31.09Zm1080.36,2.27v-.71c-.32.23-.31.47,0,.71Zm-21.21,1.04c-4.89.55-5.9,1.23-4.23,1.68,1.61.43,4.83.52,9.44-.15,3-.44,3.88-.92,3.37-1.34-1.56-.42-4.08-.69-8.58-.19Zm-1034.96-9.91c6.11-.95,6.07-1.66,5.18-2.41-.8-.68-2.3-1.4-.62-2.38-13.79,1.45-22.59,2.38-31.03,3.26-3.11,1.02.44,1.08,3.17,1.28,1.32.09,2.57.24,3.82.38,5.02.6,10,1.34,19.48-.14Zm217.5,1.79c7.39-.73,13.8-1.64,12.87-2.93-.33-.45-3.68-.44-6.73-.1-7.07.78-14.84,1.72-15.81,3.02-.55.73,4.87.4,9.67.02Zm-106.43,8.34c.85.36,3.74.37,6.95-.06,4.39-.59,5.73-1.22,5.31-1.82-.8-.36-2.42-.66-5.76-.27-5.61.66-8.09,1.48-6.51,2.15ZM0,140.54c22.99-2.45,46-4.87,69.21-6.55,30.5-2.21,59.78-4.93,88.76-8.72,7.68-1,14.96-1.25,22.12-1.39,9.05-.18,18.4-.95,27.99-1.82,14.67-1.34,26.59-2.69,24.04-5.53-1.56-1.75,6.4-3.2,17.32-4.16,11.07-.97,22.36-1.59,23.05.48.76,2.29,9.38,1.43,19.43.35,15.11-1.63,30.04-3.33,39.92-6.24,6.31-1.86,14.03-2.5,24.48-3.39,29.95-2.55,59.85-5.62,89.73-8.53,4.57-.44,10.41-1.12,10.23-2.04-.18-.94-5.77-.63-10.5-.11-65.47,7.15-131.81,11.38-197.67,17.25-82.9,7.38-165.33,15.56-248.08,23.12v7.3ZM1245.37,41.37c.5.43,3.19.42,6.32.03,1.2-.15,1.88-.52,3.19-.91-2.47.02-4.8.02-7.3.1-.25,0-2.41.61-2.22.78Zm282.18-25.02c2.15-.99-18.87-.54-32.51.62-.62.05-1.24.1-1.83.16-1.03.1-2.06.21-3.08.32-6.04.72-12.57,1.39-16.53,2.5-4.21,1.19-5.28,2.14,3.49,1.73,5.94-.28,12.36-.69,18.46-1.27.84-.08,1.73-.15,2.61-.22,10.9-.9,23.85-1.29,29.39-3.85Zm-240.07,24.64c-4.28.2-9.35.61-11.29,1.28-8.07,2.8-19.53,5.81-18.14,8.23,1.35,2.34,26.61,1.17,43.95-1.9,8.67-1.53,16.36-4.27,15.16-5.39-1.59-1.48-18.62-2.73-29.69-2.22Zm83.32-6.17c-5.61.44-13.92.93-12.46,2.13.92.75,7.98-.05,12.73-.59,2.74-.31,5.21-.79,12.05-1.86-7.08.17-9.66.11-12.32.32Zm160.27-24.9c-2.35-.53-7.85-.07-12.72.44-1.45.15-3.91.72-3.72.85,1.2.82,6.38.35,11.19-.09,3.01-.37,6.68-.87,5.26-1.19Zm-160,11.39c-19.41,1.71-39.97,2.16-57.55,5.97,12.35-.14,24.45-1.07,36.81-2.22,7.18-.67,15.63-1.65,21.39-1.72,21.48-.26,41.05-2.52,63.67-6.25-22.54.85-43.26,2.37-64.32,4.22Zm-156.92,14.35c-1.5-.55-4.51-.82-8.44-.78-1.96.02-4.08.09-6.51.3-2,.17-3.62.38-4.95.62-3.41.61-4.71,1.38-4.1,2.01.85.87,4.78,1.18,12.21.46,6.61-.64,11.57-1.44,11.79-2.61Zm-22.78,14.56c1.04.37,3.7.44,7.1-.08,1.27-.19,1.57-.6,2.29-.91-1.07-.34-2.91-.62-6.24-.28-3.77.38-4.11.93-3.16,1.27Zm-25.39-12.04c-2.2.05-4.68.19-7.14.35-5.08.34-10.27.66-15.31,1.15-5.31.52-9.18,1.03-11.9,1.52-5.99,1.09-5.79,2.1,1.25,2.9,4.11.47,9.46.7,14.3,1.05,5.92-1.36,11.54-2.66,17.25-3.96,4.21-.95,10.95-1.97,7.3-2.75-1.27-.27-3.34-.32-5.75-.27Zm167.86,9.13c-5.15.52-6.22,1.16-4.51,1.63,1.16.32,3.8.41,7.03-.01,3.25-.42,3.49-.91,3.18-1.31-.81-.36-2.45-.63-5.71-.3Zm-445.68,24.61c-5.45,1.63-3.17,2.35,6.23,1.73,13.22-.87,26.97-2.66,36.83-2.65,11.61-1.31,20.93-2.43,22.3-3.87,1.38-1.44-8.1-1.3-14.43-1.44-6-.14-46.6,4.93-50.93,6.22Z"/>
</svg>