<?xml version="1.0" encoding="UTF-8"?>
<svg id="Layer_1" data-name="Layer 1" xmlns="http://www.w3.org/2000/svg" xmlns:xlink="http://www.w3.org/1999/xlink" viewBox="0 0 1920.27 280">
  <defs>
    <style>
      .cls-1 {
        fill: url(#linear-gradient);
      }
    </style>
    <linearGradient id="linear-gradient" x1="960.13" y1="-50.67" x2="960.13" y2="242.59" gradientUnits="userSpaceOnUse">
      <stop offset="0" stop-color="#0d0d0d"/>
      <stop offset="1" stop-color="#333"/>
    </linearGradient>
  </defs>
  <path class="cls-1" d="m413.21,252.09c-1.31-.37,1.53-.75,2.42-.87,3.76-.44,6.03-.59,6.83-.38,1.56.41-1.53.78-4.11,1.02-1.74.16-4.74.34-5.14.23Zm90.36-21.66c-4.42.53-7.13,1.16-6.49,1.79.64.64,3.85.74,8.51.11,3.7-.5,7.78-1.2,7.21-1.84-.6-.67-4.9-.41-9.23-.06Zm-34.54,9.57c-8.38,2.31-21.33,2.59-31.92,4.07-4.47.62-9.35,1.13-13.84,1.75-3.33.46-5.81,1.05-5.29,1.58.45.46,3.36.26,6.21.07,9.47-.64,13.78.09,18.36.68,4.91.64,11.88.34,19.79-.42,5.35-.52,10.36-1.45,7.39-1.99-4.34-.8-2.17-1.82,1.83-3.17,3.07-1.04,1.96-1.9-2.53-2.58Zm-237.43,4c2.29-.27,3.46-.59,3.06-.88-.39-.29-2.11-.32-4.35-.1-2.32.23-3.62.57-3.09.86.48.26,2.11.3,4.38.12Zm103.83-8.78c16.06-1.01,29.48-4.37,46.97-5.21,4.62-.22,9.86-.83,14.35-1,10.57-.4,20.07-1.17,29.4-2.99,6.4-1.25,14.14-1.96,21.7-2.09,13.37-.23,27.2-1.8,40.94-3.07,5.04-.47,9.38-1.1,12.87-1.93,8.25-1.95,5.22-3.21-6.55-2.6-8.49.44-16.86,1.26-23.52,2.68-6.43,1.37-12.56,1.68-20.63,2.26-24.53,1.76-49.39,3.19-73.76,6.65-14.25,2.02-29.39,3.5-44.58,3.86-12.18.29-21.59,2.12-29.88,3.87-6.19,1.3-4.1,2.22,3.56,2.09,9.42-.15,18.9-1.1,29.12-2.52Zm-142.85,12.7c-.22-.14-3.19-.02-4.99.1-1.92.12-3.96.38-4.25.83.38.25,2.23.21,4.21.02,2.31-.22,5.83-.45,5.03-.95Zm-27.73,10.55c-.66,0-2.54.29-3.15.46-.56.16-.16.34-.18.51,1.17-.1,2.7-.17,3.44-.32,1.66-.33,2.09-.65-.1-.65Zm17.7-1.88c.97.94,7.71.47,13.14-.07,16.53-1.64,32.99-3.38,49.48-5.08,18.17-1.53,35.96-3.39,53.04-5.67,6.81-.91,13.45-1.44,20.42-2.02,18.79-1.56,37.61-3.24,53.92-6.21,4.44-.81,8.43-1.27,13.5-1.38,26.83-.57,53.33-4.07,79.67-6.95,8.12-.89,15.79-1.97,24.35-2.52,5.61-.36,11.13-1.02,15.75-1.91,6.39-1.23,11.63-2.52,8.84-3.53-2.52-.91-9.66-.58-16.91.06-7.61.67-15.3,1.38-22.79,2.2-30.45,3.33-60.86,6.67-91.22,10.06-19.63,2.19-39.56,3.96-59.39,5.73-10.26.92-19.19,1.85-26.62,3.52-7.59,1.7-17.25,2.87-26.89,3.34-9.12.44-15.91,1.37-23.49,2.59-9.4,1.52-19.51,2.62-29.98,2.78-8.59.13-17.57.87-26.25,2.14-6.43.95-9.45,2.05-8.56,2.92Zm163.96,1.54c-.9.11-1.42.39-2.11.59,1,.03,1.95.16,2.99.09,2.66-.2,3.53-.54,2.44-.76-.43-.09-2.35-.04-3.31.08Zm-66.28,6.15c-2.39.15-3.55.52-3.8.85-.26.34.66.51,2.92.44,2.52-.21,3.52-.54,3.8-.87.3-.35-.63-.56-2.92-.42Zm45.04-14.73c3.43-.51,1.27-1.01-1.03-1.22-3.92-.36-10.02-.21-14.88.53-11.56,1.78-23.56,2.8-35.84,3.9-8.08.72-12.41,2.01-13.98,3.12-3.34,2.36-13.27,4.22-25.4,6.15-12.29,1.95-12.2,2.36-1.3,2.68,2.25.07,4.72.01,4.69.48-.07.89,3.43.71,8.25.1,10.54-1.34,21.05-2.69,33.15-4.23-2.49-.84-4.7-1.39-5.98-2.05-3.81-1.96-2.03-2.33,15.24-3.93,14.27-1.32,24.63-3.7,37.07-5.54Zm85.78-10.17c-2.69-.14-6.52.29-8.99.95-3.12.83-1.62,1.25,1.33,1.47,6.91.53,13.35-.08,27.72-2.74-7.19-.15-14.77.59-20.06.32Zm-92.77,18.65c5.87-.31,8.67-1.1,12.54-2.26-8.33.31-12.93.9-14.8,2.01-.21.13,1.29.3,2.26.25Zm-121.93,3.68c-1.86.44-3.97.91-2.23,1.39,3.49-.04,6.12-.38,8.53-.77,4.05-.65,9.92-1.15,10.83-2.08.23-.24-1.27-.52-2.65-.49-6.06.16-10.54,1.02-14.48,1.95Zm281.33-27.71c-.46-.63-13.59-.59-20.51.06-6.73.63-14.14,2.33-13.44,3.07.72.76,10.59.85,17.86.17,8.35-.79,16.68-2.5,16.09-3.3Zm-102.46,16.37c-6.2.76-12.91,1.4-11.64,2.41.84.67,5.03.89,10.63.15,5.79-.77,12.48-1.81,11.88-2.8-.61-1.01-7.46.09-10.87.25Zm-345.06,5.48c-6.51-.17-11.6.71-14.84,1.97-1.84.71-4.61,1.59-9,1.83-2.08.12-4.09.27-6.06.44v3.9c3.64-.4,7.37-.75,11.26-1.03,3.94-.28,6.09-1.1,4.84-1.49-3.98-1.25,3.55-2.19,11.05-3.16,7.64-.99,15.29-1.98,26.22-3.39-9.84-.11-17.41,1.11-23.46.95Zm-11.22-110.11c-3.49-.62-9.34.2-15.67.91-.64.06-1.75.17-3.01.3v4.81c1.88-.19,3.8-.43,5.72-.71,4.41-.65,7.35-1.45,9.84-2.28,3.33-1.12,6.97-2.34,3.13-3.02Zm45.35,133.04c-1.97.31-3.16.67-2.78.94.65.46,3.16.34,6.02-.13,1.94-.32,2.66-.68,1.7-.9-.92-.22-2.69-.18-4.94.09Zm463.54-48.26c2.28-.32,3.91-.48,4.63-.67,2.87-.75,8.05-1.51,7.23-2.26-.33-.31-2.47-.25-4.7.05-6.9.9-9.88,1.8-7.16,2.88ZM.27,141.6v1.8c6.1-.34,12.65-.88,20.24-1.78-6.28-.73-13.32-.46-20.24-.02Zm57.15,1.63c-3.1.75-5.55,1.64-7.05,2.44-4.46,2.38.95,3.03,14.07,1.78,5.75-.38,9.88-1.22,13.99-2.12,9.76-2.15,11.25-3.17,5.22-3.82-6.61-.71-19.47.08-26.24,1.72Zm-48,13.69c-1.12-.03-3.16.04-4.19.2-8.03,1.3-.51,2.11-4.86,3.27-.67.63.12,1.06,3.36.95,4.63-.15,7.39-.88,6.97-1.52-.63-.96,6.77-2.66-1.28-2.9Zm151.78,4.74c-2.62.07-5.18.59-6.22,1.01-1.74.69,1.71.55,4.28.52.77-.01,1.64-.06,2.47-.09.15-.18.39-.36.44-.53.12-.35,2.4-.99-.97-.9Zm-110.43-24.61c-3.49.3-6.88.61-7.2,1.29-.83.08-1.65.15-2.49.24-3.72.39-7.47.95-7.4,1.69.05.54,3.04.62,5.96.47,4.46-.23,8.94-.41,13.55-.65.65-.02,1.3-.04,1.96-.08.49-.03.95-.07,1.39-.11,9.14-.55,18.87-1.44,30.04-3.53-9.36.21-17.64.39-25.68.77-2.07-.93-7.2-.04-10.14-.08Zm1810.4-7.02c10.07.03,21.37-.89,32.39-1.78,9.48-.77,18.75-1.61,26.71-2.69V3.94c-2.45-.62-3.69-1.16,0-2.25V0H.27v136.09s.01,0,.02.01c2.83-.08,5.68-.15,8.53-.22-.28.1-.51.21-.65.34,1.74.31,4.81.09,7.63-.05,2.44-.12,5.62-.29,7.02-.69,2.56-.09,5.12-.2,7.65-.33,3.07-.16,5.95-.4,8.66-.73,2.38-.05,5.16-.24,8.11-.48,5.91-.48,11.86-.86,17.71-1.41,33.43-3.14,64.94-3.94,97.47-6.07,10.02-.65,19.31-1.48,29.26-1.65,8.45-.15,18.96-1.53,28.12-2.76,16.79-2.24,33.56-4.48,49.41-3.64,2.2.12,3.56-.23,5.64-.5,14.62-1.93,29.04-3.56,43.12-4.43.85.14,1.96.12,3.21-.08.27-.04.48-.1.73-.14,8.74-.45,17.35-.59,25.78-.3,7.21.24,15.75-.81,22.98-2.08,10.91-1.92,22.52-3.35,34.89-4.52,3.53.96,9.38.99,20.28.25,6.76-.46,13.74-.87,20.33-1.57,10.79-1.15,20.9-2,30.62-1.79,8.53.18,17.7-1.55,26.71-1.97,16.91-.78,35.27-1.6,51.15-3.08,6.02-.56,12.01-1.03,17.97-1.45,3.62.57,11.17.61,17.62-.04,3.41-.35,6.43-.94,8.6-1.62,6.84-.42,13.68-.85,20.54-1.36,5.83,1.47,15.63,1.27,24.05.68,8.59-.6,12.26-.26,14.95.62-17.73,2.75-35.22,2.76-52.34,3.41-15.77.59-31.54,1.54-47.01,3.33-15.54,1.8-31.88,2.63-46.82,4.92-6.06.93-10.29.59-14.01.3-9.43-.72-19.24-.84-32.49,1.26-2.45.39-6.26.71-8.77.73-17.57.19-34.82,2.44-50.99,4.61-8.09,1.08-16.17,1.99-24.3,2.84-1.15-.43-2.47-.83-4.03-1.17-5.07-1.09-13,.02-21.5.91,3.64,1.35,7.13,1.39,10.68,1.39,1.24,0,2.4.01,3.49.04-2.87.29-5.74.57-8.63.87-12.66,1.28-22.68,1.57-28.96.21-7.86-1.7-19.37-1.03-34.46.25-17.63,1.48-34.35,3.21-50.9,5.44-8.03,1.08-16.14,1.77-24.59,2.21-22.71,1.19-45.63,2.83-67.62,3.09-9.9.11-19.52,1.7-30.47,3.6-1.28-.24-2.99-.43-4.48-.56-2.56-.21-5.83-.13-8.68.5-3.01.67-3.07,1.4-2.12,2.06.91.64,2.2,1.23,3.5,1.8,1.75.78,3.54,1.57,5.37,2.37-2.9.16-5.8.3-8.7.41-5.08.2-11.3.52-12.44,1.88-.86,1.02,2.4,1.52,7.43,1.54,2.52,0,5.88-.23,8.79-.5,3.67-.35,7.2-.61,10.63-.82,1.6.7,3.25,1.42,5.02,2.2,1.44-.93,2.16-1.76,2.58-2.56,7-.25,13.63-.24,20.14-.07,10.28.27,21.28.31,32.91-2.44,4.36-1.03,9.87-1.3,14.46-1.03,10.49.62,20.95-.07,33.31-2.22,7.86-1.36,16.07-2.2,23.28-1.04,6.85,1.11,20.25-.18,31.23-.83,26.79-1.59,53.72-3.58,80.69-6.11,4.53-.43,9.67-1.13,13.2-.9,18.38,1.19,41.23-1.35,62.55-2.67,6.05-.37,12.24-.89,17.47-.78,6.3.14,6.03,1.2,3.6,2.37-2.49,1.2-7.63,1.81-13.12,1.77-40.54-.25-85.49,3.93-128.38,7.17-29.35,2.22-57.92,3.48-87.18,5.83-10.68.86-19.41,1.45-24.98,3.64-3.28,1.29-9.08,2.37-14.16,3.52-3.43.78-6.06,1.6-6.28,2.31-1.88.27-3.31.76-6.02,1.72-1.32.47-2.98.94-4.48,1.41-9.55,1-15.31.59-20.07.03-4.73-.55-8.83-.17-14.07.95-2.86.62-6.91,1.14-9.39,1.79l-6.38,1c-10.41.75-20.89,1.8-31.24,2.34-3.1.16-5.63.5-7.63,1.01-10.51,1.33-21.38,2.19-32.28,3.11-10.31.87-20.64,1.78-30.85,2.83-1.44.09-2.88.22-4.32.44l-3.1.3c-6.72.4-13.47.84-20.22,1.39v6.26c8.05-.44,16.2-1.15,24.32-1.79,10.42-.82,15.9-2.37,12.44-3.52-.92-.3-1.39-.61.65-1.1,1.02-.25,2.38-.47,3.82-.5,2.96-.06,2.4.42,3.15.7,1.37.52-3.58,1.87,4.66,1.48,8.86-.49,17.6-1.27,26.21-2.33h0c4.71-.42,8.57.27,13.83-.87,10.68-1.11,21.33-2.21,31.84-2.4,2.17-.04,4.48-.34,6.56-.66h0c2.29-.19,4.58-.38,6.87-.56,14.51-.78,29.01-1.88,43.51-3.49,4.05.16,7.94.39,13.95-.36,2.34-.19,4.52-.42,6.08-.78l2.52-.41c5.76-.45,11.61-.98,16.55-.81,2.08.07,4.17.14,3.6.62-.62.52-2.99.95-6.03,1.25-5.74.57-11.7,1.13-16.71,1.03-4.67-.1-9.45.21-14.71.8-.03.17-.07.33-.1.5h0c-6.93.56-13.86,1.12-20.79,1.67-7.05.83-14.21,1.41-21.35,2.04-11.28,1.01-21.52.61-32.61,2.28,2.1-.63,4.23-1.27.85-1.53-3.09-.24-7.12-.13-10.91.53-9.94,1.73-20,1.64-29.95,2.54-.8.07-1.82,0-2.44.09-8.49,1.15-16.88,2.32-26.19,2.48-.99.02-2.55.38-2.45.62.09.24,1.33.26,2.79.19,7.85-.4,15.75-.57,23.73-1.69,4.22-.59,7.16-.77,9.75-.45,3.62-.17,7.24-.28,10.99-.73,6.97-.83,12.97-1,18.61-.89v.25c-1.26.46-4.76.84-5.26,1.45,6.03-.47,11.82-.91,17.44-1.67,9.04-.87,18.42-1.4,27.1-2.68.46-.07,1.68.04,2.55.06-1.34,1.11,4.88,1.23,8.43.78,11.32-1.43,19.64-.92,29.67-1.58,6.81-.45,13.32-.76,20.01-1.56l4.49-.4c9.46-.49,18.94-.92,28.04-2.44h0c4.16-.59,7.87-.9,12.09-.86,6.24.07,13.98-.82,20.84-1.09,3.11.1,5.95-.31,8.79-.79,2.26-.39,4.95-.82,7.22-.72,3.1.14,9.5-.27,8.62.53-.88.8-6.7,1.2-10.89,1.6-4.6.43-9.25.78-13.87,1.17h0c-1.08.08-2.15.17-3.23.25-5.26,1.1-10.57.82-15.85,1.28-14.57,2.17-30.08,2.89-44.62,3.82-13.83.88-27.71,2.03-41.49,2.97-.37.02-.75.05-1.12.08-2.83.19-5.65.38-8.46.54-.56.03-1.14.06-1.71.1-1.77-.01-3.51.19-5.25.43-4.67.46-9.33.92-14,1.39-1.57-.04-2.63-.31-5.26.13h0c-3.24.57-6.7,1.02-10.62,1.17-13.76.56-28.06,2.03-41.99,2.83-5,.29-10.37.7-15.28,1.43-.47.03-.92.07-1.38.11h-.02c-4.94.05-10.31.53-15.36,1.04-13.75,1.41-27.29,2.6-41.12,3.28-.49.02-1.01.06-1.52.09v2.44s12.63-.73,19.13-1.12h0s.87-.02.87-.02h0c-1.24,1.19-.76,2.27,2.49,3.08,3.51-.29,7.01-.57,10.52-.86h0c2.62-.17,7.65-.36,6.61-.82-1.79-.8,1.89-1.3,5.39-1.81,1.05-.08,2.12-.18,3.22-.29,3.48-.56,5.96-1.2,8.53-1.83.1-.11.24-.21.41-.31,3.54-.57,7.09-1.13,10.63-1.7,1.17-.1,2.33-.2,3.44-.31,3.13-.22,6.32-.61,9.42-.69.63-.05,1.22-.08,1.81-.11,2.63.1,5.24.2,6.08.66-7.6,2.64-2.17,3.54,14.21,2.38,2.43-.17,4.85-.31,7.27-.45,1.18.03,2.66.05,4.49.08,2.37-.15,4.75-.33,7.11-.6.92-.13,1.65-.27,2.25-.41,2.5.12,5.81-.04,8.74-.22,14.04-.85,28-1.62,42-2.44,2.26-.13,4.47-.38,5.97-.72.44-.01.87-.03,1.28-.03,1.71-.12,3.43-.23,5.12-.42.93-.16,1.86-.33,2.81-.48,2.78-.03,6.58-.33,5.97.07-.21.14-.59.25-1.08.35-4.04.35-8.12.58-12.15,1.01-.82.12-1.46.26-1.97.4-.12.05-.22.09-.31.13-2.18.17-4.36.35-6.54.52-3.62,1.17-9.77.85-14.15,1.58h0c-1.04.17-2.07.33-3.11.5h-.01c-9.76.13-20.16.9-30.67,1.76-3.14.26-6.28.5-9.42.75-6.17.06-12.77.84-19.18,1.3-4.27.31-8.68.7-10.39.08h0c-4.91-.96-11.23.22-17.39,1.14-2.32.52-4.64,1.04-6.95,1.55-2.28.18-4.56.37-6.84.55-6.03.08-12.76.63-18.58,1.31-12.4,1.44-25.02,1.87-37.26,3.33-.02,0,.27,0,.27,0v2.06c6.32-.36,12.6-.7,18.97-1.12,3.71-.25,7.38-.48,11.09-.79.91-.09,2.33-.23,2.3-.34l.17-.07c11.25-.66,22.5-1.32,33.75-1.98,2.91.77.14,1.29-6.88,1.9-8.71.76-17.59,1.45-26.09,2.52-4.14.71-8.19.78-12.25.95-1.1.19-2.19.38-3.28.57h0c-3.57.53-7.16,1.06-10.69,1.6-2.96.45-7.33.98-6.27,1.49,1.03.49,5.27.3,9.16-.11,4.17-.44,7.9-.69,11.17-.54,1.18-.17,2.37-.34,3.55-.52,8.71-.54,15.41-.1,24.26-.71,13.66-.66,27.01-1.85,39.96-3.69,10.15-1.18,20.1-2.11,29.89-2.14,4.66-.01,10.04-.58,15.16-1.01h0s0,0,0,0c7.63-.58,14.81-.95,22.34-1.26,12.72-.51,25.27-2.12,35.27-4.3h0c4.56-.45,7.04-.41,8.99.09,2.67.69,7.82.66,14.65-.29l2.75-.26c4.24-.22,8.85-.81,12.83-.78,2.73.02,4.19.27,2.75.84-1.51.59-4.12.71-6.49.66-5.11-.1-10.08.6-15.58,1.14-14.76,1.45-29.45,3.09-44.44,4.2-3.29.24-6.32.48-8.97,1.02h0c-8.81.45-17.42,1.2-26.41,2.12-8.51.88-17.52,1.46-26.19,2.01-6.37.41-12.25.92-17.97,1.77l-2.13.23c-14.7.9-29.39,2.5-44.12,3.57-5.33.39-9.56.19-14.88.68-.03.08-.06.16-.08.23-7.51.74-15.01,1.6-22.54,1.82-1.17-.05-2.43-.06-3.75-.05v6.2c4.53-.35,9.14-.79,13.9-1.4,4.77-.62,10.28-.88,15.43-1.14,4.62-.24,9.23-.57,12.93-1.42,5.68-.61,11.21-1.44,16.05-.88,2.47.29,7.68-.44,11.61-.7,9.72-.64,19.61-1.51,28.78-1.62,1.94-.02,3.96-.27,5.78-.57h0c9.12-1.52,18.35-1.14,27.49-2.24,3.71-.14,5.71.08,6.76.51.74.3,1.56.58,3.63.68,1.79.09,6.2-.29,5.22.26-1,.56-4.95.67-7.69.94-5.45.53-10.9,1.05-16.35,1.57-5.43.47-11.21.72-15.79,1.73h0c-3.21-.51-8.38.21-13.06.49-23.04,1.41-45.71,3.97-68.57,5.87-2.73.23-4.98.57-6.85,1h0c-1.93.46-3.98.92-5.77,1.39-2.22.58-4.59.96-8.21,1.02-1.73.03-3.49.09-5.27.19v9.75c1.21-.09,2.42-.18,3.64-.29,22.16-1.93,44.25-3.61,66.34-5.11,4.49-.3,9.12-.88,13.69-1.32,2.81-.22,5.63-.43,8.45-.65h0c.66.1,1.32.19,1.97.29,11.84-.92,23.85-1.68,34.76-3.49h-.06s0,0,0,0c1.14-.09,2.68-.28,3.35-.25,11.15.47,24.34-1.45,36.52-2.22,1.02.21,2.42.38,3,.65,3.46,1.58,3.39,1.58,17.01.5,1.51-.12,3.02-.25,4.54-.37l1.67.1c.56.12,1.12.24,1.68.36l-.14.04c10.45.02,22.26-1.35,33.34-1.96,6.09-.34,12.51-.98,18.78-1.48,10.49-.83,21.1-1.38,31.35-2.79.51.06,1.03.11,1.55.16h0c-.58.93,4.42.47,8.07.34,3.76-.14,7.89-.33,4.83.69-1.1.37-3.53.79-1.25.96,1.66.13,3.91.07,6.3-.18,3.12-.32,4.11-.74,4.06-1.16-.02-.2-.47-.38,1.33-.76,4.29.14,3.76,1.01,6.04,1.43,1.71.32,3.05.61,7.07.41,13.82-.68,27.81-1.93,41.76-3.04,5.45-.45,11.11-.79,15.67-1.75,5.46-.45,10.96-.98,16.02-.96,2.19,0,4.45-.23,6.51-.61h0c4.18-.53,8.38-.91,12.6-1.03,3.7-.11,7.27-.38,10.43-1.04.94-.09,1.87-.19,2.8-.28,10.78-1.6,19.73-2.17,28.89-1.61,5.67.35,15.16-.17,23.13-1.02,9.54-1.03,19.02-2.2,28.43-3.34,1.83-.22,3.77-.45,3.67-.73.39-.04.78-.08,1.15-.13h0c2.3-.18,4.61-.36,6.91-.53,7.92-.06,15.83-.11,23.76-.18.5,0,1.18-.01,1.64-.07,1.99-.25,3.98-.46,5.98-.65-7.55,1.2-16.67,2.15-27.04,2.77-14.03.83-27.68,2.57-41.35,3.96-15.73,1.6-31.12,3.54-46.68,5.32-12.95,1.48-26.06,2.79-39.33,3.91-17.4,1.47-34.32,3.25-51.49,5.2-16.05,1.82-32.43,3.53-48.63,5.35-12.55,1.42-22.58,3.68-35.09,4.74-15.6,1.32-30.05,3.2-44.97,4.84-6.81.75-18.19,1.36-16.63,2.88,1.38,1.34,11.27.19,18.85-.58.69-.07,1.38-.16,2.06-.22,22.36-1.82,40.68-5.85,64.46-7.27,22.17-1.32,44.01-4.28,66.02-6.49,15.21-1.53,29.3-2.99,43.71-5.1,10.76-1.58,24.57-2.4,37.01-3.58,19.39-1.84,38.33-4.13,55.54-6.75,10.66-1.62,16.75-1.56,24.59-1.6,8.59-.04,7.61,1.04,2.56,2.49,7.32-.45,11.78-1.11,12.36-1.79,1.81-2.08,10.86-2.8,21.15-3.81,19.33-1.9,38.52-4.02,57.68-6.11,13.7-1.49,15.37-1.53,16.29.48.32.71-1.23,1.58,6.43.9,8.64-.76,14.77-2.1,14.18-3.06-1.34-2.19-.65-2.15,12.98-4.03,1.1-.15,2.2-.27,3.3-.41,3.86-.2,7.72-.29,11.65-.19,7.53.19,18.95-.93,28.71-1.66,8.47-.63,16.95-1.31,25.43-1.98.49,1.31,6.74,1.3,15.58.38,14.16-1.48,29.27-2.17,42.52-4.44,15.74-.77,31.82-2.32,47.83-3.73,1.01-.09,2.02-.18,3.03-.27h0c12.98-.24,26.9-2.14,40.08-2.74,3.42-.15,6.8-.38,10.18-.64-1.52.2-3.29.36-4.82.52-9.65.98-19.39,2.02-29.07,2.8-40.35,3.26-80.22,7.24-120.11,11.34-32.22,3.31-64.65,6.39-97.16,9.27-2.77.25-5.81.4-8.27.73-34.44,4.68-70.44,7.71-106.35,10.83-7.72.67-15.04,1.51-22.45,2.45-22.61,2.86-46,5.33-69.45,7.35-42.13,3.62-82.41,8.38-122.96,13.2-21.85,2.6-43.49,5.98-67.51,6.8-7.52.26-15.46,1.5-20.85,2.78-13.25,3.15-29.94,4.57-46.49,5.43-15.74.82-30.19,1.98-44.01,4.43-1.15.2-2.6.47-3.78.55-17.55,1.15-30.6,3.63-43.92,6.13.03.08-.27.32.2.44,8.65,2.27,25.04,1.03,43.15-1.28,10.54-1.34,22.03-2.21,31.84-3.96,5.14-.92,11.78-1.55,18.19-2.02,4.14-.31,9.23-.54,12.32-1.06,27.83-4.68,58.77-6.05,88.11-9.07,19.11-1.97,37.75-4.31,57.42-5.34,6.1-.32,12.12-1.37,17.74-2.24,16.14-2.51,33.08-4.2,50.39-4.95,9.06-.4,17.35-1.02,26.41-2.25,9.83-1.33,21.35-2.36,16.24-4.24-1.72-.63,3.18-1.58,8.6-2.1,20.26-1.92,40.42-5.1,60.91-5.03,7.13.03,14.83-.93,21.17-2.28,3.62-.77,7.16-1.56,11.14-2.29,8.43-1.55,15.3-2.01,18.17-.9,5.75,2.23,16.88,1.7,33.52-.55,3.52-.48,8.18-.6,12.3-.87,4.88-.32,11.12-.64,14.09-1.39,10.2-2.59,27.02-4.15,37.73-6.74,11.18-2.7,22.32-3.16,29.81-1.57,5.28,1.12,25.63.2,35.6-2.01,12.38-2.74,24.39-3.62,38.21-4.03,10.06-.29,20.76-1.14,30.92-2.21,13.87-1.47,27.77-2.73,41.57-3.79,12.63-.97,21.78-2.08,25.57-4.33.88-.52,2.89-1.16,8.74-1.74,4.03,2.28,17.52,1.34,33.19-.32,14.43-1.53,29.28-2.23,43.62-4.01,6.44-.8,14.58-1.5,11.31-2.81-1.08-.43,3.2-1.1,5.63-1.65,5.62-1.27,11.24-1.96,13.7-.81,3.5,1.63,12.67,1.47,24.97.41,31.97-2.76,63.94-5.53,95.9-8.35,9.73-.86,19.16-2.01,27.51-3.42,12.27,1.53,11.91,1.57,2.25,4.32-6.11,1.74-10.72,2.43-19.85,2.07-8.29-.33-10.36.09-15.05,2.19-5.04,2.26-18.76,4.73-32.24,5.85-5.14.43-10.38.79-12.19.16-3.16-1.11-13.87-.47-18.42-1.26-3.04-.52-8.91-.23-14.59.28-16.41,1.46-33.35,2.55-46.42,5.72-10.69,2.6-23.41,2.58-31.8,2.32-10.76-.34-21.05.44-33.07,1.72-12.35,1.31-24.63,2.48-37.34,3.36-11.7.81-24.11,2-30.72,4.4-1.58.57-4.56,1.44-3.55,1.66,8.1,1.82-5.25,2.73-14.85,3.82-14.25,1.63-28.45,3.29-42.75,4.9-9.51,1.07-15.11,2.29-15.02,3.7.07,1.12,7.76,1.4,18.01.46,13.09-1.21,26.07-2.66,42.06-4.31.3-.05-.79-.37-1.33-.71-.67-.42-2.38-.85,1.94-1.45,4-.55,6.42-.28,8.04.04,4.85.95,13.56,1.02,22.2-.42,11.79-1.96,23.38-2.39,31.73-2.46,11.89-.1,20.05-1.27,28.37-2.83,9.75-1.83,16.85-2.76,26.55-2.02,9.46.72,20.49-.46,33.82-2.81,8.14-1.43,11.18-3.41,22.13-4.42,11.08-1.02,16.1.09,23.92.22,6.67.11,14.5-.52,22.06-1.09,7.09-.54,13.48-.85,19.92-.92,11.82-.12,18.81.5,16.6,2.68-1.51,1.5,1.35,2.21,10.66,2,10.33-.23,14.02.74,13.18,2.34-.82,1.56-.05,2.6,13.76,1.28,6.08-.58,9.42-.17,9.94.76,1.32,2.39,3.49,2.43,20.7.78,3.49-.33,7.77-.65,9.28-1.27,2.56-1.05-2.92-.69-6.49-.65-5.61.07-4.33-.55-.79-1.34,4.31-.97,9.61-1.6,15.41-1.9,4.74-.24,9.43-.45,14.06-.62,6.78-.26,14.68-.56,19.35-1.84,5.23-1.43.26-2.15-3.06-2.84-2.84-.6-8.45-.59-13.51.58-12.25,2.82-24.6,3.41-38.03,3.56-4.85.06-10.78.52-16.02.7-1.41.05-3.01-.21-2.86-.45.16-.24,2.14-.65,3.71-.94.99-.18,2.72-.25,4.06-.41q16.94-1.93,18.01-4.34c27.08-1.46,52.95-1.9,82.26-5.14,13.25-1.46,27.23-2.94,41.22-3.41,8.76-.3,16.96-.65,22.36.11,4.35.62,9.57.43,13.35-1.24,1.91-.84,3.55-1.72,10.18-1.65,6.81.07,8.11,1.11,3.16,2.32-8.36,2.06-21.6,3.19-31.78,2.86-4.64-.15-4.92-1.32-12.46-.74-2.39.4-2.58.7-2.67,1.01q-.69,2.34-15.98,3.79c-2.75.26-5.58.41-8.3.69-4.35.44-5.45.99-4.9,1.51.49.45,2.84.37,6.01.1,27.98-2.38,55.99-4.36,83.92-7.14,4.41-.44,8.2-.66,11.78-.59,3.54.08,7.87-.1,11.89-.59,16.28-1.98,26.24-2.24,29.4.15,1.39,1.05,11.47.52,17.21-.46,16.34-2.77,40.59-3.8,48.76-7.77,9.82-.28,4.96,1.42,10.49,1.51,3.74.06,5.42.88,11.47.03,5.38-.75,5.09-1.52,5.19-2.24.13-1.01.87-2.06.92-3.06.03-.65.19-1.31,5.76-1.8,6.89-.6,7.21.13,6.96.9-.4,1.24-.59,2.46-1.16,3.71-1.23,2.67-1.3,2.67-18.62,4.61-4.17.47-8.92,1.01-8.01,1.72.71.56,5.17.18,8.55-.19,15.52-1.71,31.85-2.76,46.42-5.31,8.69-1.52,18.72-2.15,26.86-1.72,5.61.3,10.57-.22,16.3-1.45,11.44-2.45,23.45-4.71,40.79-5.8,7.46-.47,12.55-1.74,13.28-3,.62-1.06,3.96-2.06,11.53-2.76,6.45-.6,10.78-.38,12.76.24,6.54,2.04,20.07,1.44,36.83-.34,23.43-2.49,46.94-3.58,70.37-5.98,7.91-.81,11.06-.2,13.82.37,4.07.84,9.3.74,18.44-.42,16.9-2.14,32.92-2.53,48.96-3.23,9.49-.42,13.21.26,13.59,1.57.31,1.04,2.33,2.05,9.98,1.56,13.38-.86,24.28-.97,34.68-.69,2.71.07,8.16-.46,7.91-1.1-.65-1.71,6.59-2.24,14.87-2.8,2.73-.18,5.62-.39,8.28-.68,3.6-.4,5.93-.91,6.64-1.33v-.48c-.36-.15-1.11-.26-2.3-.32-4.56-.22-10.21-.17-15.36-.25-7.9-.11-10.5,1.39-15.71,2.1-7.12.97-15.64,2.51-19.62.86-1.33-.55-7.65-.46-11.2-.76-1-.09-.86-.51-.23-.81.8-.38,3.42-.71,5.31-.7ZM24.96,157.04c-.21.64.03,1.23-1.71,1.95-1.66.68-3.11,1.36-4.13,1.81.33,1.65,13.8,1.88,24.61.57,8.18-.99,14.24-2.48,21.01-3.78,1.07-.21,1.91-.55,2.11-.79.51-.61-1.89-.75-4.37-.83-9.11-.32.03-4-17.89-2.88-14.48.91-18.77,1.45-19.62,3.96Zm72.17,121.16c3.91.88,9.6,1.15,19.7-.04,8.38-.99,15.58-2.66,25.6-2.75,3.62-.03,6.22-.87,6.5-1.41.68-1.3,4.32-2.65,8.43-4.05,3-1.03,5.02-2.2.4-2.57-4.05-.33-10.5.66-15.77,1.05-16.43,1.78-29.6,4.22-42.67,6.61-7.8,1.43-5.62,2.4-2.18,3.17Zm1.68-12.09c-12.28.27-21.6,1.62-31.55,3.44,14.47-.59,18.45-1.02,31.55-3.44Zm49.63-12.87c2.44-.44,3.6-.98.99-1.08-3.8-.14-7.9.47-11.45,1.1-2.27.4-4.65.87-2.86,1.23,4.63.08,9.17-.5,13.32-1.25Zm-34.74-15.31c-3.32.39-6.61.84-9.68,1.31-5.2.8-14.04,1.64-11.01,2.62,2.54.82,10.32-.13,15.7-.63,4.88-.5,8.91-.98,12.11-1.66,3.34-.7,4.91-1.4,3.18-1.87-1.84-.5-5.94-.3-10.3.22Zm9.04,24.47c-1.83.3-4.53.65-6.4,1.06-1.26.28-1.87.68-1.87.95,0,.33,2.03.33,4.23.15,5.51-.45,10.95-1.02,15.64-1.84,1.49-.26,3.03-.72,2.96-.95-.13-.43-2.85-.41-5.72-.19-2.7.21-5.41.5-8.85.83Zm-3.47-43.1c-8.58.63-17.18,1.33-25.78,2.04-.76.06-1.49.34-1.93.44-.07.46,1.52.56,3.68.34,4.94-.51,9.07-.55,13.27-.62,5.58-.09,8.66-.95,12.07-1.63,2.12-.42.61-.71-1.31-.57Zm-70.28,2.71c2.86-.23,5.73-.45,8.59-.68,15.97-1.15,32.07-2.54,47.76-3.2,4.77-.2,9.7-.61,14.37-1.27,2.09-.3,2.68-.53.33-.55-6.27,1.09-11.45.55-17.38,1.14-14.16,1.4-27.66,1.57-41.76,2.87h0s.05,0,.05,0h0,0c-8.11-.01-11.81.51-11.98,1.7Zm85.1-56.94c1.62-.13,2.46-.38,2.57-.62.12-.24-.53-.35-2.21-.27-1.67.14-2.68.36-2.96.6-.35.31.4.47,2.59.29Zm910.3.22c3.3-.38,3.58-.8,2.72-1.12-.86-.32-2.77-.39-5.8-.1-3.36.42-3.6.8-2.65,1.11.91.3,2.74.45,5.73.11Zm-361.07,18.92c-10.25.19-14.71.73-19.44,1.85,6.65.14,10.39-.87,19.44-1.85Zm-501.64,40.05c.96-.1,1.99-.21,3.01-.31-.26-.12-.45-.24-.86-.34-.07-.02-1.15.09-1.63.17-1.34.22-1.51.38-.52.48Zm-18.98,7.75c-8.31,1.12-17.34,2.17-23.32,3.73-1.79.47-2.31.91-1,1.2,1.4.3,4.13.15,6.95-.11,6.25-.57,12.38-1.24,17.76-2.17,5.21-.9,10.2-1.84,16.49-2.98-4.76-.75-10.52-.53-16.89.33Zm392.43-18.34c4.18-.47,5.67-1.1,5.37-1.74-.54-1.14-8.34-1.13-18.72,0-5.34.58-9.28,1.25-8.33,2.06.74.63,14.49.44,21.68-.32Zm779.02-44.05c-7.92-.06-17.35.78-25.1.73-6.56-.05-11.12,1.29-14.47,2.32-.7.22.19.6,1.37.65,4.76.23,29.1-2.12,38.19-3.7Zm-86.71,6.56c-.13-.12-1.67-.09-2.6-.12-.69.2-1.38.41-2.06.61.95.03,1.9.06,2.85.09.66-.2,1.94-.46,1.81-.58Zm469.18-33.18c.93-.27.54-.43-.94-.39-.52.01-1.37.11-1.91.2-1.51.24-1.68.43-.59.53,1.26.05,2.53-.06,3.44-.33Zm115.4-6.96c-2.12-.62-7.2-.27-12.07.39-4.24.57-9.36,1.17-9.81,2.1,4.28.55,10.6-.11,16.58-.74,4.95-.52,7-1.25,5.3-1.75Zm-1705.51-5.41c1.14-.12,2.79-.48,2.94-.66.35-.43-1.24-.54-5.05-.29-1.04.08-3.05.39-2.68.8.33.38,2.49.39,4.79.14Zm37.98,19.78c11.56-1.52,17.59-3.66,13.73-4.72-3.64-1-13.43-.78-23.03.92-8.85,1.57-23.24,2.42-25.22,5.18-.35.49-8.64,1.46-15.01,2.49,14.12,1.68,14.3,1.71,30.36-1.33,6.05-1.15,12.77-1.7,19.16-2.54Zm70.23-26.28c3.28-.16,5.6-.6,5.35-1.16-.17-.37-2.21-.43-4.51-.26-2.35.17-3.98.51-4.4.96.1.38,1.34.57,3.56.47Zm76,86.08c-5.18-.26-9.91.54-14.54,1.24-.3.04.06.45.54.42,5.24-.22,10.21-.64,13.99-1.66Zm-214.02-74.72c1.91-.24,2.99-.63,2.82-1.08-.19-.47-1.68-.64-3.65-.43-1.84.2-3.1.61-2.88,1.06.23.47,1.7.59,3.71.44Zm118.91,78.83c6.58.13,13.92-.34,21.43-1.21,5.52-.64,10.62-1.2,15.69-1.07,3.52.09,7.19-.36,10.47-.95,2.14-.39,2.64-.76,1.61-1.02-1.62-.41-5.04-.29-8.61.03-12.56,1.13-24.51,1.5-36.82,2.34-1.15.08-2.35.11-3.43.23-3.8.42-9.27.76-9.68,1.54-.49.94,4.94.45,9.31.12h0s.01,0,.01,0Zm-36.35-53.28c1.02-.02,2.19-.09,3.29-.14-.24-.1-.41-.21-.73-.29-1.35-.37-3.11-.65-7.43-.18-1.48.16-2.88.42-2.62.62.73.56,4.86.04,7.48,0Zm16.11,53.76c-.6-.62-7.62.22-11.94.58-3.79.32-7.98.72-6.93,1.45.81.57,3.64.62,9.12.08,4.62-.48,10.32-1.52,9.75-2.11Zm648.83-16.77c-1.47-.25-4.45-.15-7.21.12-6.87.69-13.64,1.49-20.52,2.16-13.6,1.32-27.19,3.24-40.92,3.42-4.12.05-8.03.73-11.81,1.31-3.09.48-7.06,1.24-9.45,1.31-17.26.52-32.26,3.15-47.99,4.91-14.52,1.63-25.45,1.74-34.89,1.25-6.18,1-5.78,1.78-8.33,2.57-3.9,1.2-8.96,2.05-15.74,2.08-7.37.03-14.11.53-21.53,1.79-8.26,1.41-16.31,1.53-23.67,1.59-6.61.05-11.69.35-15.13,1.79-3.59,1.5-1.23,2.37,6.98,2.13,4.42-.13,9.55-.44,14.27-.87,40.75-3.78,81.37-6.76,121.94-9.72,14.45-1.05,26.07-2.79,36.63-4.79,12.6-2.39,26.03-3.99,41.06-4.92,14.51-.89,25.73-2.57,34.61-4.92,1.77-.47,3.27-.97,1.7-1.23Zm-38.98,16.14c-11.84.43-19.38,1.48-26.96,2.41,7.86.14,15.43-.82,26.96-2.41Zm-41-1.41c-5.22.56-9.73,1.28-7.98,2.03,1.49.65,6.28.47,11.38.02,4.76-.57,7.59-1.2,6.93-1.85-.79-.78-4.68-.8-10.33-.19Zm-92.55,13.67c-12.44,1.19-22.84,2.19-33.83,3.25,15.75-.06,20.28-.47,33.83-3.25Zm14.68-4.83c-.76-.77-7.15-.14-11.77.27-3.31.3-6.65.7-9.83,1.11-1.79.23-3.26.58-4.04.72,3.77.79,8.18.83,14.17.07,4.69-.6,12.45-1.17,11.47-2.17Zm378.2-32.56c1.15-.32,1.66-.67,2.05-.98.33-.27-.89-.37-2.3-.18-3.27.44-3.08.84-2.82,1.17.69.24,2.2.24,3.06,0Zm-206.75,10.67c.13-.14-1.1-.28-2.01-.24-.79.04-1.94.34-2.93.52.71.09,1.43.18,2.14.26.99-.19,2.67-.41,2.8-.55Zm-42.97,13.65c.45.02.87.09,1.37.06,1.68-.11,2.6-.32,2.37-.54-.06-.06-.81-.1-1.32-.06-1.71.11-2.53.31-2.42.55Zm29.56-7.83c-8.58,1.16-16.35,2.16-25.56,2.4-4.01.11-8.27.98-8.62,1.68-.47.91,4.43.98,9.29.46,12.56-1.35,25.62-2.56,39.2-4.54-4.85-.69-10.51-.52-14.32,0Zm156.19-20.39c3.46-.47,5.69-1.1,4.85-1.55-.97-.53-4.75-.23-8.19.2-3.48.44-6.14.94-5.01,1.47,1.98.29,4.6.39,8.36-.11Zm53.71-2.82c2.24-.29,3.4-.62,2.38-.84-.39-.09-2.29-.02-3.35.09-2.22.23-3.65.58-2.39.81.49.09,2.21-.03,3.37-.05Zm-119.78,19.51c-2.01.27-3.27.6-2.24.93,1.6.2,4.23-.08,6.81-.41,1.97-.25,3.99-.61,2.59-.82-1.55-.23-4.45-.06-7.16.3Zm-211.87-8.15c-3.46.31-6.88.7-10.12,1.04-11.74,1.04-20.97,2.24-28.26,4.42-7.64,2.28-25.38,3.75-36.88,3.36-5.39-.18-10.29-.74-17.52.02-11.5,1.21-22.72,2.67-33.94,4.07-1.64.2-3.63.71-3.88.98-2.04,2.15-9.67,4.24-18.68,6.45-6.6,1.62-3.08,2.79,1.58,3.54,4.95.8,14.54-.17,20.49-1.19,13.75-2.37,32.26-2.57,44.17-5.54.76-.19,4.18-.39,5.8-.4,15.06-.04,31.39-2.23,47.05-3.33,14.65-1.02,26.22-3.34,37.1-5.5,6.4-1.27,8.65-2.56,6.86-3.57-1.71-.96-1.74-2-.32-3.24,2.56-2.21.29-2.34-13.45-1.11Zm216.95-1.05c12.45-.1,23.11-1.81,34.24-2.98,8.99-.95,10.63-2.15,4.28-2.55-2.85-.18-6.56-.2-10.27-.14-8.13.14-15.06.17-20.43-.61-6.67-.98-22,.52-26.71,2.62-4.92,2.19-11.73,2.74-20.85,2.82-7.45.07-13.57.28-20.11,1.95-6.18,1.58-3.74,2.36-.53,3.11,1.41.33,3.07.71,5.7.75,9.45.13,10.42,1.31,10.19,2.82-.36,2.43,5.88,2.76,21.32.93,11.11-1.32,24.15-1.55,34.8-4.15-23.74,1.28-28.73,1.07-29.48-1.06-.63-1.77,6.88-3.42,17.84-3.5Zm-341.83,40.44c-3.18.3-5.12.79-4.65,1.21.5.44,3.29.32,6.33.04,2.86-.32,5.89-.75,5.85-1.18-.06-.65-4.07-.38-7.53-.06Zm-4.59-2.59c-2.54.59-4.35,1.17-2.09,1.49,2.29.33,5.52.02,8.96-.52,7.17-1.12,14.39-2.22,21.9-3.38-13.49-.17-20.16.4-28.77,2.41Z"/>
</svg>